<svg width="628" height="537" viewBox="0 0 628 537" fill="none" xmlns="http://www.w3.org/2000/svg">
<g clip-path="url(#clip0_17_35)">
<path d="M323.38 267.384C325.629 276.391 322.62 284.844 316.66 286.262C310.701 287.68 304.048 281.528 301.799 272.517C300.849 268.93 300.807 265.169 301.675 261.551L292.646 223.265L311.413 219.44L318.321 257.588C320.798 260.412 322.532 263.771 323.38 267.384Z" fill="#8F7231"/>
<path d="M244.7 486.303L245.856 511.396L244.698 518.339L248.751 526.44L280.593 529.912L282.33 514.868L265.54 506.188L265.052 492.01L244.7 486.303Z" fill="#8F7231"/>
<path d="M278.277 524.126L276.541 526.44L243.194 516.836C243.194 516.836 244.698 531.648 244.698 534.541C244.698 537.434 299.699 537.434 307.975 536.277C316.251 535.12 313.593 527.598 313.593 527.598L279.272 511.36L278.277 524.126Z" fill="#3F3D56"/>
<path d="M161.739 467.832L154.8 491.975L151.479 498.183L152.725 507.154L181.781 520.628L188.244 506.93L175.117 493.337L183.351 471.996L161.739 467.832Z" fill="#8F7231"/>
<path d="M181.44 514.405L179.053 516.042L150.536 496.277C150.536 496.277 147.218 510.791 146.292 513.532C145.365 516.273 197.473 533.865 205.685 535.416C213.896 536.967 213.787 528.99 213.787 528.99L186.47 502.629L181.44 514.405Z" fill="#3F3D56"/>
<path d="M246.944 72.0297L248.16 91.7645L211.289 93.6338L222.707 67.633L246.944 72.0297Z" fill="#8F7231"/>
<path d="M249.101 88.8126C239.218 93.2182 223.411 92.0129 205.497 88.8126L202.697 212.852C202.697 212.852 258.734 224.112 278.001 203.336L267.861 101.988L249.101 88.8126Z" fill="#E0E1E2"/>
<path d="M271.917 206.376L192.806 214.191L153.766 479.13H183.68L234.904 297.59L238.961 503.327H266.34L289.663 251.476L271.917 206.376Z" fill="#2F2E41"/>
<path d="M216.744 81.2115L190.164 96.9321C180.094 102.887 175.348 114.909 178.636 126.132L199.179 196.257C199.179 196.257 165.726 253.695 176.597 258.762C201.024 270.15 237.474 267.377 237.474 267.377L229.327 129.859L216.744 81.2115Z" fill="#B18CD8"/>
<path d="M247.946 88.2912L278.001 99.9609L285.1 186.614L304.978 256.42C271.309 268.704 274.452 262.98 274.452 262.98L268.875 142.527L247.946 88.2912Z" fill="#B18CD8"/>
<path d="M291.852 254.944L291.749 254.47L261.027 112.455C260.168 108.487 261.266 104.51 264.038 101.542C266.81 98.5739 270.706 97.2069 274.727 97.7911C279.685 98.5117 283.655 102.122 284.839 106.988L318.585 245.619L291.852 254.944Z" fill="#B18CD8"/>
<path d="M230.946 77.2726C247.467 77.2726 260.859 63.8871 260.859 47.3753C260.859 30.8635 247.467 17.4781 230.946 17.4781C214.425 17.4781 201.032 30.8635 201.032 47.3753C201.032 63.8871 214.425 77.2726 230.946 77.2726Z" fill="#8F7231"/>
<path d="M245.177 8.64119C251.766 10.9557 255.537 12.2801 258.99 15.6055C264.824 21.2225 265.787 28.7288 266.681 35.7033C267.381 41.1596 268.286 48.2141 265.089 56.2741C263.998 59.0247 258.706 71.2795 248.577 72.8282C246.587 73.1323 241.917 73.2123 243.263 72.219C255.722 63.0261 261.039 57.4764 260.603 43.3086C260.332 34.5053 246.873 25.0007 238.881 23.2921C235.515 22.5725 231.033 23.2299 227.819 25.8669C221.102 31.378 221.388 54.1676 214.306 58.9315C211.393 60.8907 213.334 47.0995 211.281 49.336C207.232 53.7489 209.829 60.5068 210.557 63.0805C214.009 75.2881 220.517 76.483 223.888 86.9077C227.528 98.1626 222.947 108.759 221.861 111.272C219.971 115.643 216.728 123.145 209.318 126.744C199.912 131.312 192.499 125.363 188.126 130.463C185.681 133.314 187.004 136.333 182.589 145.201C181.148 148.096 180.427 149.543 179.789 149.492C176.77 149.249 171.882 125.097 179.788 102.604C183.105 93.1652 186.356 83.9171 195.068 76.6854C199.674 72.8621 203.537 71.4863 204.637 67.0216C206.208 60.6431 199.685 57.9206 198.377 47.8564C197.483 40.9734 196.856 31.1295 199.287 24.82C201.583 18.8617 203.576 13.6895 208.794 8.99993C210.047 7.87354 220.162 0.217064 230.887 0.0010873C235.825 -0.0981982 239.453 6.63028 245.177 8.64119Z" fill="#1A1616"/>
<path d="M308.386 269.807C348.794 269.807 381.551 237.069 381.551 196.683C381.551 156.298 348.794 123.559 308.386 123.559C267.978 123.559 235.221 156.298 235.221 196.683C235.221 237.069 267.978 269.807 308.386 269.807Z" fill="#DADADA"/>
<path d="M289.873 244.391C294.314 228.378 298.756 212.366 303.198 196.353C304.143 192.944 304.875 189.158 307.039 186.265C308.712 184.028 311.344 182.565 314.13 183.485C320.771 185.678 320.663 195.255 320.545 200.843C320.367 209.278 318.462 217.693 314.955 225.371C314.474 226.424 314.654 227.68 315.725 228.305C316.647 228.845 318.177 228.595 318.661 227.536C322.172 219.848 324.259 211.619 324.745 203.175C325.164 195.89 325.195 186.282 318.877 181.316C315.789 178.889 311.847 178.168 308.227 179.846C304.649 181.503 302.464 184.936 301.09 188.489C299.563 192.441 298.653 196.678 297.522 200.756L293.877 213.894C291.163 223.68 288.449 233.465 285.735 243.251C284.996 245.915 289.135 247.052 289.873 244.391Z" fill="black"/>
<path d="M308.902 222.09C311.651 211.78 313.055 201.118 313.067 190.449C313.07 187.689 308.778 187.684 308.775 190.449C308.764 200.757 307.419 210.989 304.764 220.95C304.052 223.62 308.191 224.759 308.902 222.09Z" fill="black"/>
<path d="M264.783 221.966C267.659 208.106 270.773 194.202 274.765 180.615C278.002 169.597 283.583 157.112 295.362 153.118C301.213 151.134 307.553 151.454 313.541 152.605C319.479 153.746 325.493 155.445 330.966 158.044C336.146 160.503 340.938 163.894 344.349 168.564C347.715 173.175 349.811 178.526 350.941 184.097C353.563 197.027 350.477 210.237 347.019 222.699C346.559 224.358 346.088 226.013 345.617 227.669C344.861 230.329 349.001 231.464 349.756 228.809C353.577 215.373 357.547 201.337 355.766 187.236C354.996 181.137 353.285 175.146 350.234 169.779C347.109 164.279 342.599 159.783 337.192 156.515C331.74 153.219 325.601 151.121 319.455 149.547C312.926 147.874 306.132 146.845 299.408 147.78C293.068 148.661 287.355 151.665 282.865 156.202C278.266 160.849 275.155 166.656 272.86 172.725C270.329 179.419 268.675 186.45 266.934 193.379C265.094 200.703 263.376 208.058 261.784 215.44C261.397 217.234 261.018 219.029 260.645 220.826C260.41 221.959 260.976 223.143 262.144 223.464C263.207 223.756 264.547 223.106 264.783 221.966Z" fill="black"/>
<path d="M286.902 177.628C290.248 167.479 301.025 161.195 311.459 161.892C323.025 162.664 333.049 171.105 337.11 181.728C339.522 188.04 340.23 194.988 339.216 201.667C339.042 202.81 339.505 203.972 340.715 204.305C341.729 204.583 343.179 203.959 343.354 202.807C345.382 189.457 341.656 174.91 331.144 165.883C326.215 161.65 320.177 158.72 313.714 157.843C307.499 156.999 301.233 158.149 295.731 161.173C289.695 164.49 284.927 169.927 282.764 176.488C281.897 179.116 286.04 180.242 286.902 177.628Z" fill="black"/>
<path d="M277.77 197.299C276.849 208.302 274.074 219.182 269.585 229.273C269.115 230.33 269.277 231.577 270.355 232.207C271.269 232.742 272.818 232.501 273.291 231.438C278.109 220.607 281.072 209.114 282.062 197.299C282.159 196.144 281.006 195.155 279.916 195.155C278.675 195.155 277.868 196.14 277.77 197.299Z" fill="black"/>
<path d="M329.609 209.581C328.687 220.584 325.912 231.464 321.423 241.555C320.953 242.612 321.116 243.859 322.193 244.489C323.108 245.024 324.656 244.783 325.129 243.72C329.947 232.888 332.911 221.396 333.9 209.581C333.997 208.425 332.845 207.437 331.755 207.437C330.513 207.437 329.706 208.422 329.609 209.581Z" fill="black"/>
<path d="M288.568 201.045C291.328 190.109 295.9 179.744 302.103 170.322C303.626 168.01 299.911 165.859 298.398 168.158C292.008 177.862 287.272 188.641 284.43 199.905C283.755 202.582 287.892 203.724 288.568 201.045Z" fill="black"/>
<path d="M246.629 181.771C255.868 180.799 263.823 184.954 264.398 191.05C264.974 197.146 257.952 202.874 248.71 203.844C245.023 204.284 241.292 203.803 237.827 202.44L198.636 206.043L197.46 186.937L236.22 185.413C239.362 183.355 242.932 182.106 246.629 181.771Z" fill="#8F7231"/>
<path d="M198.881 97.8386C189.395 96.5032 180.495 102.737 178.523 112.107C171.644 144.797 159.299 214.43 178.688 215.593C204.039 217.113 228.376 211.033 228.376 211.033L222.292 176.067L202.518 174.04L214.149 119.666C216.358 109.341 209.342 99.3111 198.881 97.8386Z" fill="#B18CD8"/>
</g>
<defs>
<clipPath id="clip0_17_35">
<rect width="628" height="537" fill="white"/>
</clipPath>
</defs>
</svg>
