<svg width="188" height="125" viewBox="0 0 188 125" fill="none" xmlns="http://www.w3.org/2000/svg">
<g clip-path="url(#clip0_186_149)">
<path d="M176.959 121.606L174.848 122.977L168.547 115.493L171.663 113.469L176.959 121.606Z" fill="#A0616A"/>
<path d="M178.466 123.758L171.972 127.976L171.919 127.894C171.483 127.224 171.332 126.409 171.497 125.628C171.663 124.846 172.133 124.163 172.803 123.727L173.404 122.058L176.202 121.519L176.769 121.151L178.466 123.758Z" fill="#2F2E41"/>
<path d="M140.771 125.2L138.253 125.2L137.055 115.494L140.772 115.494L140.771 125.2Z" fill="#A0616A"/>
<path d="M140.86 127.825L133.115 127.825V127.727C133.115 126.928 133.433 126.162 133.998 125.597C134.563 125.032 135.33 124.715 136.13 124.715L137.545 123.643L140.184 124.715H140.86L140.86 127.825Z" fill="#2F2E41"/>
<path d="M166.843 65.8294L144.256 66.3255L142.018 69.1213C142.018 69.1213 142.211 68.1356 142.039 69.2182C141.867 70.3009 137.509 91.8868 138.333 92.6108C139.157 93.3347 136.771 98.3331 136.596 98.638C136.421 98.9428 134.532 113.989 136.596 115.226L137.371 120.477H140.978C140.978 120.477 144.591 116.3 143.864 115.543C143.137 114.785 145.217 112.267 145.296 110.917C145.376 109.567 146.135 103.442 145.547 102.46C144.958 101.478 144.163 97.7929 145.656 96.3642C147.148 94.9355 154.109 77.3789 154.109 77.3789C154.109 77.3789 156.132 97.9613 156.127 99.5774C156.121 101.679 157.503 100.639 157.503 102.484C157.503 102.857 162.001 112.438 165.024 115.433L171.277 120.237L174.162 118.075V114.952C174.162 114.952 171.488 109.158 170.555 108.226C169.622 107.294 166.178 104.441 166.178 103.136C166.178 101.832 164.556 101.377 165.647 99.6474C166.738 97.9177 166.364 97.1721 165.991 96.4266C165.618 95.681 166.326 65.1343 166.326 65.1343L166.843 65.8294Z" fill="#2F2E41"/>
<path d="M157.425 20.5351C161.194 20.5351 164.25 17.4824 164.25 13.7166C164.25 9.95092 161.194 6.89819 157.425 6.89819C153.655 6.89819 150.6 9.95092 150.6 13.7166C150.6 17.4824 153.655 20.5351 157.425 20.5351Z" fill="#A0616A"/>
<path d="M162.877 68.4354L164.798 62.6577L168.255 63.2936L166.007 69.3299C166.143 69.6836 166.179 70.0684 166.108 70.441C166.038 70.8136 165.865 71.1592 165.609 71.4391C165.353 71.7189 165.024 71.9219 164.659 72.0251C164.294 72.1284 163.907 72.1278 163.542 72.0235C163.177 71.9192 162.849 71.7153 162.594 71.4347C162.338 71.1541 162.167 70.808 162.098 70.4352C162.028 70.0624 162.065 69.6777 162.203 69.3244C162.34 68.9711 162.574 68.6633 162.877 68.4354Z" fill="#A0616A"/>
<path d="M123.033 57.2698L127.74 53.4033L130.326 55.7816L125.204 59.6926C125.131 60.0646 124.956 60.409 124.697 60.6869C124.439 60.9649 124.109 61.1654 123.743 61.2659C123.377 61.3664 122.99 61.363 122.626 61.256C122.262 61.149 121.935 60.9426 121.682 60.6601C121.429 60.3777 121.26 60.0302 121.193 59.6569C121.127 59.2836 121.166 58.8993 121.306 58.547C121.447 58.1948 121.683 57.8886 121.988 57.663C122.293 57.4373 122.655 57.3012 123.033 57.2698Z" fill="#A0616A"/>
<path d="M149.253 12.5239C149.989 12.7521 150.698 12.8866 151.177 12.2836C151.655 11.6807 151.53 10.9912 152.242 10.7005C152.837 10.5011 153.485 10.5311 154.06 10.7846C154.163 10.823 154.264 10.8663 154.363 10.9095C154.418 10.8615 154.473 10.8158 154.533 10.7726C154.986 10.4512 155.544 10.3153 156.094 10.393C155.692 10.5869 155.362 10.902 155.149 11.2939C155.346 11.3924 155.546 11.4909 155.748 11.5749C156.597 11.9218 157.515 12.0664 158.429 11.9972C159.344 11.928 160.23 11.6469 161.016 11.1762C160.228 13.2518 160.841 13.9917 161.997 15.8871L162.043 15.9976C161.928 15.5003 163.44 14.9262 163.44 15.6469C163.374 16.3852 163.212 17.1119 162.959 17.8089C164.443 15.5772 165.318 12.9659 164.744 10.4603C164.621 9.93417 164.566 9.36964 164.231 8.94202C163.897 8.51682 163.282 8.26697 162.796 8.5072C162.736 7.69247 162.456 6.90925 161.985 6.24083C161.515 5.57242 160.873 5.04377 160.126 4.71111C159.379 4.37844 158.556 4.25419 157.744 4.35156C156.932 4.44893 156.161 4.76428 155.515 5.26409C154.913 5.72774 154.44 6.33553 153.903 6.87605C153.367 7.41658 152.732 7.90903 151.982 8.04356C151.506 8.12765 150.97 8.07719 150.59 8.37749C150.15 8.72583 150.145 9.33842 150.147 9.92698C150.578 9.91471 151.002 10.031 151.366 10.2609C150.921 10.2721 150.49 10.4234 150.135 10.6933C150.128 10.6975 150.122 10.7024 150.116 10.7077C149.986 11.6975 150.039 11.9065 149.253 12.5239Z" fill="#2F2E41"/>
<path d="M173.266 34.8732C173.107 34.1126 172.792 33.3931 172.342 32.7595C171.892 32.126 171.316 31.5922 170.649 31.1915C170.6 30.937 170.511 30.7742 170.376 30.726C168.436 30.0371 163.02 26.8542 163.02 26.8542L162.566 23.2145L152.766 22.7441L150.259 26.8542C150.259 26.8542 143.763 27.5065 143.883 29.8821C142.31 31.8424 135.307 40.6014 131.11 46.3938C129.104 49.1623 127.738 51.2538 127.914 51.6002C128.504 52.7665 127.674 51.9796 126.746 52.1903C125.818 52.4011 126.268 52.9491 126.289 53.7571C126.31 54.5651 123.117 56.2653 123.117 56.2653C125.065 56.961 127.505 59.8206 127.505 59.8206C127.505 59.8206 129.869 57.3335 130.298 57.0735C130.727 56.8136 130.966 56.4342 132.323 55.9635C133.68 55.4928 133.111 55.1344 133.209 54.1368C133.308 53.1391 133.638 53.8768 135.544 52.9565C137.45 52.0361 135.903 52.3874 136.43 51.1297C136.958 49.872 136.789 50.5606 138.505 49.5208C139.537 48.8958 140.561 47.9779 141.987 46.3938C142.933 45.3424 144.055 43.9981 145.475 42.2491C145.485 42.2372 145.494 42.2248 145.503 42.2129C145.599 43.6307 145.672 45.049 145.716 46.3938C145.84 50.2147 145.722 53.4366 145.165 54.3239C144.384 55.5692 143.061 59.7367 141.986 63.3959C141.777 64.1055 141.741 64.8543 141.878 65.5808C142.016 66.3074 142.324 66.991 142.778 67.5755C143.231 68.1599 143.817 68.6287 144.487 68.9432C145.156 69.2578 145.891 69.4091 146.631 69.3849C153.301 69.1651 163.062 68.6568 164.964 67.5416C165.999 67.6894 167.021 67.9139 168.023 68.2132C168.023 68.2132 168.696 64.8506 168.92 64.4022C169.144 63.9539 169.144 63.5056 170.042 62.3847C170.94 61.2638 170.266 61.2638 169.818 60.3671C169.369 59.4704 170.042 59.9188 171.164 58.1254C172.286 56.332 171.164 57.4528 170.94 56.1078C170.715 54.7627 170.94 55.4353 171.837 53.6419C172.581 52.1559 173.017 50.2061 173.527 46.3938C173.633 45.6052 173.741 44.7388 173.857 43.7782C174.238 40.605 173.756 37.2162 173.266 34.8732Z" fill="#B18CD8"/>
<path d="M66.0648 122.57C65.9152 122.577 65.7672 122.538 65.6407 122.458C65.5141 122.378 65.4153 122.261 65.3576 122.123C65.2998 121.985 65.2859 121.832 65.3177 121.686C65.3496 121.54 65.4256 121.407 65.5356 121.306L65.5856 121.107C65.579 121.091 65.5724 121.075 65.5657 121.059C65.415 120.704 65.1625 120.4 64.8399 120.188C64.5173 119.975 64.139 119.862 63.7525 119.864C63.366 119.865 62.9885 119.981 62.6675 120.196C62.3465 120.411 62.0963 120.716 61.9482 121.073C61.3566 122.496 60.6033 123.922 60.4178 125.427C60.3361 126.093 60.3706 126.767 60.5197 127.421C59.13 124.392 58.4084 121.101 58.4038 117.77C58.4035 116.934 58.45 116.098 58.543 115.267C58.6199 114.586 58.7266 113.91 58.8631 113.239C59.6079 109.596 61.2071 106.182 63.5293 103.276C64.6532 102.663 65.5621 101.721 66.1336 100.577C66.3406 100.165 66.4869 99.726 66.568 99.2726C66.4412 99.2893 66.09 97.3602 66.1856 97.2419C66.0089 96.974 65.6926 96.8409 65.4997 96.5795C64.54 95.2796 63.2177 95.5066 62.5275 97.2731C61.0529 98.0165 61.0386 99.2496 61.9434 100.435C62.519 101.19 62.5981 102.211 63.1032 103.019C63.0512 103.085 62.9972 103.149 62.9452 103.216C61.9954 104.436 61.1675 105.746 60.4734 107.128C60.6422 105.58 60.4408 104.014 59.8857 102.56C59.3231 101.204 58.2687 100.062 57.3401 98.8899C56.2248 97.482 53.9376 98.0964 53.7411 99.8811C53.7392 99.8984 53.7373 99.9157 53.7355 99.9329C53.8734 100.011 54.0085 100.093 54.1406 100.18C54.3065 100.291 54.4351 100.449 54.5095 100.635C54.5839 100.82 54.6006 101.023 54.5574 101.217C54.5142 101.412 54.4132 101.589 54.2676 101.725C54.1219 101.862 53.9384 101.951 53.7412 101.981L53.721 101.984C53.7701 102.481 53.857 102.973 53.9808 103.457C52.7895 108.059 55.3614 109.735 59.0335 109.811C59.1146 109.852 59.1936 109.894 59.2747 109.933C58.5774 111.907 58.14 113.963 57.9735 116.05C57.8793 117.281 57.8848 118.518 57.9902 119.748L57.9839 119.705C57.7179 118.337 56.9874 117.102 55.9158 116.21C54.3243 114.904 52.0759 114.423 50.3589 113.373C50.1764 113.256 49.9643 113.194 49.7474 113.193C49.5306 113.193 49.3181 113.254 49.1351 113.37C48.952 113.486 48.8061 113.652 48.7144 113.849C48.6227 114.045 48.5891 114.263 48.6176 114.478C48.6199 114.494 48.6222 114.509 48.6246 114.524C48.8805 114.628 49.1297 114.748 49.3708 114.883C49.5087 114.961 49.6437 115.044 49.7758 115.131C49.9417 115.242 50.0703 115.4 50.1447 115.585C50.2191 115.77 50.2358 115.973 50.1926 116.168C50.1494 116.362 50.0484 116.539 49.9028 116.676C49.7571 116.812 49.5737 116.901 49.3764 116.932L49.3562 116.935C49.3417 116.937 49.3292 116.939 49.3146 116.941C49.752 117.984 50.3658 118.944 51.1291 119.78C51.874 123.797 55.0731 124.178 58.4952 123.008H58.4973C58.8728 124.638 59.4168 126.225 60.1206 127.743H65.9195C65.9403 127.678 65.959 127.612 65.9777 127.547C65.441 127.581 64.9021 127.549 64.3731 127.452C64.8034 126.925 65.2336 126.393 65.6639 125.866C65.6735 125.856 65.6825 125.845 65.6909 125.834C65.9091 125.564 66.1294 125.297 66.3477 125.027L66.3478 125.026C66.3594 124.199 66.2642 123.373 66.0648 122.57Z" fill="#B18CD8"/>
<path d="M21.4614 113.808L23.0614 115.497L30.4908 109.998L28.1294 107.505L21.4614 113.808Z" fill="#C78F8F"/>
<path d="M24.0833 114.742L22.2719 113.042L21.8271 112.626L17.2156 116.309L18.4152 117.576L19.8272 116.671L19.1786 118.382L22.359 121.74C22.5114 121.901 22.7114 122.01 22.9297 122.049C23.1479 122.089 23.3732 122.057 23.5725 121.96C23.7717 121.863 23.9347 121.704 24.0374 121.508C24.1402 121.311 24.1774 121.087 24.1437 120.868L23.4572 116.432L24.6668 115.289L24.0833 114.742Z" fill="#2F2E41"/>
<path d="M56.6256 52.2961L56.1183 57.8288C56.1183 57.8288 55.2329 61.9971 55.846 61.6593C56.4591 61.3214 55.3598 62.8421 55.6493 64.1607C55.9388 65.4793 53.1763 75.3128 54.4275 74.2941C55.6787 73.2755 53.7044 80.3128 52.4558 83.7846C52.0734 84.8579 51.6806 85.9441 51.2852 87.0226C51.2072 87.241 51.1291 87.4566 51.0486 87.6749C50.5361 89.0782 50.0236 90.4607 49.532 91.7652C49.4618 91.9472 49.3941 92.129 49.3265 92.3085C49.3239 92.3135 49.3239 92.3187 49.3213 92.3187C47.7033 96.5728 46.3168 99.9199 45.7628 100.474C45.4741 100.762 40.8933 104.068 36.2761 107.378C31.43 110.853 26.5448 114.335 26.5448 114.335L21.9822 109.553C21.9822 109.553 22.0914 109.522 22.2969 109.46C22.6767 109.351 23.3791 109.145 24.2999 108.873C28.1393 107.742 23.262 105.983 26.7478 104.725C27.731 104.372 28.3865 104.096 28.5347 103.951C29.4009 103.106 30.5638 101.092 31.1126 101.937C31.6614 102.781 34.1509 96.5053 34.8688 95.8842C35.2538 95.549 36.5102 93.982 37.5871 92.6046C38.5131 91.4196 39.3091 90.3724 39.3091 90.3724C39.3091 90.3724 39.3247 89.811 39.348 88.9171C39.382 87.5944 39.4314 85.5388 39.4834 83.4806C39.4808 83.4779 39.4808 83.4779 39.4834 83.4779C39.5016 82.7035 39.5198 81.9291 39.5381 81.1937C39.551 80.6246 39.564 80.0763 39.5771 79.5695C39.6109 78.0519 39.6342 76.9033 39.6342 76.6174C39.6342 75.6793 39.6342 76.4095 40.3756 75.843C40.4863 75.7561 40.5914 75.6624 40.6904 75.5623C40.8489 75.4198 40.9951 75.2642 41.1274 75.0971C41.182 74.9803 40.8412 75.1387 40.399 75.0504C40.1595 75.0024 39.938 74.889 39.7591 74.7229C38.8278 73.8862 39.832 71.3135 39.832 71.3135C37.7145 67.0828 37.8681 63.6135 38.8591 60.9394C39.6001 59.0205 40.7763 57.2993 42.2953 55.911C42.8734 55.3606 43.5033 54.8671 44.1761 54.4374L44.2412 54.0867L44.9565 50.2172C45.3369 50.0084 45.7325 49.8286 46.14 49.6793C47.4106 49.2238 48.7739 49.0882 50.1094 49.2843C51.4368 49.4762 52.7219 49.8918 53.91 50.5135C54.8811 51.0009 55.7924 51.5991 56.6256 52.2961Z" fill="#2F2E41"/>
<path d="M36.6469 122.428L38.9649 122.643L40.9182 113.614L37.4968 113.297L36.6469 122.428Z" fill="#C78F8F"/>
<path d="M43.3229 125.967L39.8788 123.085L40.0349 121.427L39.2338 121.401L36.7522 121.32H36.7495L36.1409 121.299L35.1081 127.105L36.8483 127.266L37.3088 125.655L37.9513 127.37L38.8722 127.456L42.5581 127.799C42.5894 127.801 42.6232 127.804 42.6544 127.804C42.8009 127.804 42.9458 127.773 43.0795 127.713C43.2131 127.653 43.3325 127.566 43.4296 127.456C43.5804 127.291 43.6728 127.081 43.6922 126.858C43.7075 126.691 43.6818 126.522 43.6175 126.367C43.5531 126.212 43.452 126.074 43.3229 125.967Z" fill="#2F2E41"/>
<path d="M49.532 91.7652C48.6501 96.5598 44.9173 107.802 42.6595 114.382C41.632 117.388 40.9141 119.423 40.9141 119.423L39.7435 119.054H39.7409L37.7614 118.43L37.0408 118.202H37.0381L36.1642 117.924C36.1642 117.924 36.2656 112.555 36.2761 107.378C36.2838 105.208 36.2734 103.07 36.2319 101.375C36.185 99.5275 36.1043 98.2049 35.9717 97.9423C35.4228 96.8664 36.3411 96.7521 37.3113 96.4818C38.2841 96.209 37.5246 95.7984 37.1474 94.9253C36.8926 94.3431 37.3945 93.5661 37.7509 93.1243C37.8493 93 37.9543 92.8811 38.0657 92.7682C38.0657 92.7682 37.894 92.7085 37.5871 92.6046C38.513 91.4195 39.309 90.3723 39.309 90.3723C39.309 90.3723 39.3247 89.811 39.348 88.917C39.3819 87.5943 39.4313 85.5387 39.4834 83.4805C39.4808 83.4779 39.4808 83.4779 39.4834 83.4779C39.5016 82.7034 39.5198 81.929 39.5381 81.1936C41.0259 82.3345 42.4722 83.452 43.7832 84.4863C43.7848 84.4875 43.7861 84.4891 43.787 84.4909C43.7879 84.4927 43.7884 84.4946 43.7884 84.4967C46.9385 86.9836 49.3031 88.9794 49.636 89.6135C49.7869 89.8993 49.7349 90.6634 49.532 91.7652Z" fill="#2F2E41"/>
<path d="M43.6429 42.9437L44.1304 47.4608L43.8438 53.384L56.9762 51.8253L58.2099 42.9437L56.6377 42.9593L43.6429 42.9437Z" fill="#FFB6B6"/>
<path d="M54.8136 28.3541L49.8712 24.456L47.2768 24.3053L43.4272 26.7691L42.4845 31.5734L40.2551 36.9834L43.525 51.5834C43.525 51.5834 43.8317 52.6311 43.028 52.7569C42.2244 52.8828 42.3207 54.4271 42.3207 54.4271C42.3207 54.4271 42.4844 55.7655 41.704 55.8834C40.9237 56.0012 38.8428 56.0012 40.6636 58.3401C42.4845 60.6789 56.8865 51.833 56.8865 51.833L58.9783 40.868C58.9783 40.868 63.035 35.4247 58.6662 32.3072L54.8136 28.3541Z" fill="#B18CD8"/>
<path d="M33.2378 61.5028C33.0201 61.2314 32.8645 60.9155 32.7822 60.5774C32.6998 60.2394 32.6926 59.8874 32.7612 59.5463C32.8297 59.2052 32.9723 58.8833 33.1788 58.6032C33.3854 58.3231 33.6509 58.0916 33.9567 57.9251L40.1734 37.0823L44.0607 39.0374L37.2905 59.0151C37.5365 59.5468 37.5786 60.1502 37.409 60.7109C37.2394 61.2716 36.8698 61.7506 36.3702 62.0573C35.8707 62.3639 35.2759 62.4769 34.6986 62.3747C34.1213 62.2725 33.6015 61.9623 33.2378 61.5028Z" fill="#C78F8F"/>
<path d="M44.3199 26.5763C44.3199 26.5763 43.2087 25.9863 42.4486 28.5393C41.8401 30.5833 36.9026 42.7576 36.8396 45.7176C36.4333 45.8036 36.0671 46.0222 35.7988 46.339C35.5306 46.6558 35.3754 47.0528 35.3579 47.4674L41.4627 48.2847C42.5295 47.3858 42.8093 46.1718 42.3966 45.8114L43.7221 42.1948L49.2519 30.6879L45.1307 26.9885L44.3199 26.5763Z" fill="#B18CD8"/>
<path d="M76.9398 54.6518C77.0187 54.3129 77.0222 53.9609 76.9501 53.6205C76.878 53.2801 76.7321 52.9597 76.5227 52.6817C76.3133 52.4038 76.0454 52.1751 75.7379 52.0118C75.4304 51.8484 75.0908 51.7545 74.743 51.7364L60.482 35.4651L57.4568 39.0713L72.2088 54.1595C72.2173 54.7452 72.4404 55.3075 72.8361 55.7397C73.2317 56.172 73.7723 56.4443 74.3555 56.505C74.9387 56.5657 75.5238 56.4105 76.0002 56.069C76.4765 55.7274 76.8108 55.2232 76.9398 54.6518Z" fill="#C78F8F"/>
<path d="M51.829 27.9475C51.829 27.9475 52.5756 26.9355 54.366 28.9091C55.7994 30.4891 65.5213 39.3332 66.8593 41.9749C67.2629 41.8769 67.6877 41.9158 68.0667 42.0856C68.4457 42.2553 68.7574 42.5462 68.9527 42.9125L63.802 46.2868C62.4511 45.9372 61.6732 44.9634 61.8894 44.4602L59.1288 41.7719L49.1618 33.7856L51.2764 28.6695L51.829 27.9475Z" fill="#B18CD8"/>
<path d="M120.501 61.9973C120.089 61.8552 119.749 61.5583 119.553 61.1696C119.358 60.781 119.321 60.3314 119.452 59.9164C119.48 59.8325 119.515 59.751 119.556 59.6728L115.618 55.3748L117.098 52.6108L121.856 59.0814C122.167 59.278 122.404 59.572 122.531 59.9175C122.657 60.263 122.666 60.6406 122.555 60.9914C122.49 61.1903 122.386 61.3746 122.25 61.5335C122.113 61.6925 121.947 61.823 121.76 61.9177C121.573 62.0125 121.369 62.0695 121.16 62.0856C120.952 62.1017 120.741 62.0765 120.542 62.0114C120.528 62.0069 120.515 62.0022 120.501 61.9973Z" fill="#FFB6B6"/>
<path d="M95.2495 29.3516C95.1193 29.9585 95.1055 30.5845 95.2087 31.1966C95.2359 31.3698 95.2735 31.5412 95.3212 31.7099C95.4975 32.3404 95.665 32.9215 95.8269 33.4457C95.9218 33.7713 96.0196 34.0781 96.113 34.3629C96.6519 36.0255 97.0729 36.9667 97.3714 37.1648C97.516 37.2617 97.6613 37.3504 97.8021 37.4371C98.5241 37.8784 99.0473 38.1983 98.6974 39.0128C98.6466 39.1292 98.5862 39.2412 98.5169 39.3477C98.401 39.5266 98.2728 39.6974 98.1334 39.8587C98.0539 39.9499 97.9806 40.0463 97.9138 40.1472C97.8267 40.2761 97.7888 40.3846 97.8357 40.4829C97.895 40.6038 98.0591 40.664 98.4113 40.6809C98.4673 40.6834 98.5314 40.6868 98.6001 40.6866C98.6223 40.6881 98.6455 40.6871 98.6712 40.6874C98.7165 40.688 98.7678 40.6884 98.82 40.6864C99.2552 40.6781 99.8168 40.907 100.418 41.2564C102.191 42.2885 104.282 44.3658 104.307 44.3917L117.357 57.7227L117.611 57.5525L118.215 57.1472L118.424 57.0079L118.663 56.8477L119.701 56.1538L120.225 55.8036L116.859 49.6295L116.493 48.9583L116.178 48.3793L109.752 36.5894L107.2 32.5361L106.63 31.6331L104.203 27.7821C103.86 27.2372 103.413 26.7651 102.888 26.3927C102.363 26.0203 101.769 25.7549 101.141 25.6117C100.513 25.4685 99.8627 25.4503 99.2276 25.5582C98.5925 25.666 97.9849 25.8977 97.4395 26.2401C97.4027 26.2632 97.3662 26.2868 97.3301 26.3109C96.2681 27.0165 95.5221 28.1068 95.2495 29.3516Z" fill="#B18CD8"/>
<path d="M96.1157 122.51L93.7249 122.49L92.6664 113.062L96.1953 113.092L96.1157 122.51Z" fill="#FFB6B6"/>
<path d="M96.7498 121.409L96.1256 121.367L93.579 121.193L92.7595 121.138L92.744 122.846L88.9253 125.434C88.7367 125.562 88.594 125.747 88.518 125.962C88.4421 126.176 88.4368 126.41 88.503 126.628C88.5693 126.846 88.7035 127.037 88.8862 127.173C89.0688 127.31 89.2903 127.384 89.5183 127.386L94.2708 127.425L95.1032 125.741L95.4076 127.435L97.2024 127.451L96.7498 121.409Z" fill="#2F2E41"/>
<path d="M121.288 120.765L119.003 121.467L115.145 112.798L118.518 111.762L121.288 120.765Z" fill="#FFB6B6"/>
<path d="M121.56 119.525L120.952 119.673L118.473 120.273L117.674 120.468L118.176 122.103L115.317 125.72C115.176 125.899 115.096 126.118 115.088 126.345C115.08 126.573 115.145 126.797 115.274 126.985C115.403 127.173 115.588 127.315 115.803 127.39C116.018 127.466 116.252 127.47 116.47 127.404L121.014 126.008L121.298 124.15L122.101 125.673L123.816 125.146L121.56 119.525Z" fill="#2F2E41"/>
<path d="M91.3065 43.236L86.7439 56.4826L86.5932 57.5426C85.4436 58.6331 86.8878 58.9924 86.3463 59.2799C85.8048 59.5675 85.4406 60.3737 86.1703 60.5177C86.9001 60.6618 89.2529 112.329 92.3563 114.335C95.4597 116.341 97.3484 117.792 96.7784 114.855C96.5488 113.671 96.8736 107.326 97.3434 100.17C97.3966 99.359 98.2378 98.5007 97.5081 97.7122C96.7784 96.9237 97.598 96.4049 97.6438 95.7505C98.2984 86.4064 99.0542 77.1812 99.0542 77.1812C99.0542 77.1812 103.891 93.7758 105.147 92.4912C106.403 91.2066 105.906 94.3694 106.29 95.3146C106.61 96.1044 105.242 97.6557 107.253 97.6795C109.264 97.7033 113.988 113.834 114.467 113.815C115.416 113.779 118.085 113.881 119.669 113.555C120.452 113.395 116.978 101.182 114.078 90.6367C113.846 89.7957 112.587 89.7761 113.397 88.1525C114.207 86.5289 110.178 76.0232 110.524 75.5374C111.442 74.2477 111.791 73.6871 110.886 73.6027C109.981 73.5182 109.714 74.0141 109.665 72.7631C109.616 71.5121 109.46 68.4272 109.46 68.4272C109.46 68.4272 108.804 56.2266 104.214 49.4858L103.823 45.4808L91.3065 43.236Z" fill="#2F2E41"/>
<path d="M102.705 17.9448L96.6546 18.8055L96.2895 23.1825L93.3037 27.8485C93.3037 27.8485 86.6669 32.5145 91.2956 39.8853C89.5341 46.2348 87.7829 52.3241 86.1133 56.3838C84.8127 64.4398 96.4644 65.2119 109.785 62.3608C109.785 62.3608 109.601 58.9162 108.392 57.2602C107.183 55.6042 107.841 55.2426 107.841 55.2426L106.997 52.1488C107.475 47.6769 105.861 47.2755 105.102 45.2094L107.405 23.7715L102.705 17.9448Z" fill="#B18CD8"/>
<path d="M73.6587 55.4161C73.7228 54.9857 73.9525 54.5974 74.2989 54.3336C74.6453 54.0698 75.081 53.9515 75.5134 54.0038C75.6011 54.0158 75.6877 54.0351 75.7722 54.0613L79.2771 49.4034L82.2686 50.3486L76.7768 56.2107C76.6406 56.5525 76.395 56.8396 76.0783 57.0273C75.7615 57.2149 75.3915 57.2925 75.026 57.248C74.6064 57.1928 74.226 56.9733 73.9684 56.6379C73.7108 56.3025 73.5971 55.8786 73.6524 55.4594C73.6543 55.445 73.6564 55.4305 73.6587 55.4161Z" fill="#FFB6B6"/>
<path d="M104.79 26.4157C104.704 26.3091 104.611 26.2052 104.512 26.1038C103.825 25.3964 102.94 24.9127 101.973 24.7161C101.006 24.5195 100.003 24.6192 99.0935 25.002C99.0051 25.0383 98.9166 25.0799 98.8308 25.1215C95.7223 26.6469 94.0445 27.663 93.8416 28.1386C93.7713 28.2998 93.7115 28.4582 93.6517 28.6115C93.5944 28.7623 93.5398 28.9051 93.4826 29.0351C93.2433 29.5912 92.9676 29.9369 92.2652 29.7809C92.0323 29.724 91.8077 29.6376 91.5967 29.5237C91.5005 29.4769 91.4121 29.4275 91.3287 29.3807C91.0271 29.2145 90.8085 29.095 90.6603 29.2041C90.5172 29.3106 90.512 29.5808 90.6421 30.2072C90.6851 30.4686 90.6781 30.7357 90.6213 30.9945C90.4493 31.7494 90.1799 32.4788 89.8201 33.1645C89.2808 34.2392 88.6744 35.2791 88.0044 36.2777L81.816 45.0925L81.3973 45.6876L80.9394 46.34L77.2872 51.5426L77.5032 51.7633L78.4084 52.686L78.6087 52.8913L78.7908 53.0783L79.2617 53.5591L79.7038 54.0087L89.5704 45.9787L90.6707 45.0821L92.6425 43.4762L96.6821 40.1888L104.327 33.1203C104.81 32.6777 105.198 32.1422 105.468 31.5461C105.739 30.9499 105.886 30.3053 105.901 29.651C105.901 29.6068 105.904 29.5652 105.904 29.5211C105.906 28.3879 105.513 27.2894 104.79 26.4157Z" fill="#B18CD8"/>
<path d="M99.0728 17.7855C102.807 17.7855 105.834 14.7614 105.834 11.031C105.834 7.30059 102.807 4.27649 99.0728 4.27649C95.3387 4.27649 92.3116 7.30059 92.3116 11.031C92.3116 14.7614 95.3387 17.7855 99.0728 17.7855Z" fill="#FFB6B6"/>
<path d="M108.033 20.3971C108.94 21.6945 109.547 23.1774 109.81 24.7383C109.078 25.2056 108.227 25.4511 107.359 25.445C107.33 25.3314 107.3 25.2178 107.266 25.1042C107.015 24.2248 106.641 23.385 106.155 22.6098C106.221 23.4458 106.108 24.2863 105.822 25.0748C105.363 24.8665 104.872 24.7398 104.37 24.7004C103.96 24.7004 103.557 24.7954 103.191 24.978C102.765 23.5689 102.374 22.2733 102.096 21.3436C102.087 23.674 98.6683 25.7058 94.9377 25.4113C94.8029 25.3272 96.1546 21.495 96.024 21.4067C95.7251 21.209 95.4345 20.9945 95.144 20.7841C96.3651 18.8996 97.6914 16.8805 97.4641 16.5776C97.4809 16.952 96.1419 18.7524 94.685 20.4518C93.8766 19.8587 98.4704 10.2089 96.2009 9.42651C96.1629 9.76724 95.6619 9.76724 95.0514 9.69574C94.8903 9.13355 94.6508 8.59684 94.3398 8.10145C94.3802 8.60048 94.3201 9.10254 94.1629 9.57795C93.56 9.57812 92.9588 9.64156 92.3692 9.76724C92.2328 9.55279 92.0823 9.34762 91.9187 9.15308C91.9348 9.39017 91.9277 9.62826 91.8976 9.86399C91.2955 9.99439 90.7986 10.1458 90.727 10.2678C90.2555 10.0953 91.0597 9.31714 90.765 8.91331C90.0154 7.90376 91.1271 6.43147 91.8302 5.38824C93.2745 3.25133 96.4451 2.51098 98.6894 3.79396C98.7904 3.44481 99.3083 3.21347 99.9736 3.05782C100.256 2.99574 100.544 2.96889 100.833 2.9779C103.696 3.02837 107.671 5.38823 107.826 8.24448C107.839 8.53052 107.86 8.8418 107.881 9.17411C108.083 12.3711 107.835 15.3199 110.02 17.6587C110.812 18.5042 110.82 22.5088 110.517 24.57C109.73 23.7413 109.17 20.5191 108.033 20.3971Z" fill="#2F2E41"/>
<path d="M42.7845 13.8396C42.1906 15.3173 40.5152 18.2231 40.2882 19.8083L40.3904 19.708C40.5852 20.0405 40.8066 20.3568 41.0524 20.6537C41.493 20.1914 42.0252 19.8259 42.615 19.5804C42.2929 20.2406 42.1064 20.9585 42.0664 21.6918C42.6987 23.6718 45.6218 22.7901 47.3344 22.5739C49.0447 24.5283 51.3202 25.0383 54.2998 23.9147C55.1332 24.0004 56.0661 24.0524 56.65 23.5604C57.234 23.0685 56.8862 22.1575 57.2004 21.4684C59.4384 16.5603 57.373 14.7894 55.6183 12.5639C55.2321 12.0741 55.2337 11.3432 54.7638 10.876C54.1119 10.2283 53.1125 10.029 52.1911 9.86943C52.4304 9.88202 52.669 9.83286 52.8838 9.72665C53.0987 9.62045 53.2825 9.46079 53.4177 9.26305C53.5362 9.06382 53.5974 8.83574 53.5945 8.60398C53.5915 8.37222 53.5246 8.14577 53.401 7.94961C53.0714 7.40382 52.3867 7.08644 51.7261 7.00715C51.0752 6.963 50.4214 7.01914 49.7877 7.17362C49.3771 7.22756 48.9796 7.3545 48.6139 7.54844C48.4413 7.64041 48.3009 7.78283 48.2116 7.95664C48.1222 8.13044 48.0881 8.32736 48.1138 8.52107C48.1688 8.69995 48.2636 8.86411 48.391 9.0013C48.5184 9.13849 48.6752 9.24517 48.8496 9.31339C49.1156 9.42573 49.3953 9.50223 49.6815 9.54089C48.3671 9.37049 47.0319 9.60396 45.8536 10.2102C44.3769 10.9971 43.3804 12.3627 42.7845 13.8396Z" fill="#2F2E41"/>
<path d="M50.7804 22.1239C53.6958 22.1239 56.0591 19.7629 56.0591 16.8504C56.0591 13.9379 53.6958 11.5769 50.7804 11.5769C47.8651 11.5769 45.5018 13.9379 45.5018 16.8504C45.5018 19.7629 47.8651 22.1239 50.7804 22.1239Z" fill="#C78F8F"/>
<path d="M45.701 14.0228C46.0071 14.9469 46.8817 15.2447 47.6901 15.4304C47.945 15.4897 48.2015 15.545 48.4603 15.5943C48.5558 15.475 48.6574 15.3581 48.7635 15.2476C49.2041 14.7853 49.7362 14.4198 50.326 14.1743C50.071 14.6957 49.9015 15.2548 49.824 15.83C50.3127 15.9008 50.8041 15.9587 51.2982 16.0037C51.7163 16.0925 52.1526 16.0176 52.5169 15.7943C52.8812 15.571 53.1457 15.2164 53.2558 14.8037C53.7056 15.5386 54.2375 16.2307 54.9649 16.5226C55.3808 16.6719 55.8337 16.6842 56.2571 16.5577C56.6805 16.4311 57.0522 16.1724 57.3178 15.8194C57.7372 15.2436 58.028 14.5846 58.1705 13.8868C58.3769 13.0685 58.4916 12.1258 58.0863 11.6066C57.7616 11.1864 57.2015 11.1789 56.6847 11.2162C55.5441 11.3036 54.4156 11.508 53.3169 11.8261L53.2239 12.0351C53.4127 10.9018 53.0031 9.81151 52.2453 9.42374C51.7342 9.16448 51.1192 9.20795 50.5217 9.26054C49.7542 9.29475 48.9958 9.44126 48.2709 9.69539C47.4393 10.015 46.7268 10.5835 46.231 11.3231C45.7006 12.1276 45.437 13.2247 45.701 14.0228Z" fill="#2F2E41"/>
<path d="M53.2262 9.09403C53.1742 9.07867 53.3091 9.0984 53.2623 9.09966C53.2856 9.09832 53.3087 9.09509 53.3314 9.09C53.3353 9.08922 53.3878 9.07247 53.3529 9.08478C53.4313 9.06136 53.5012 9.01577 53.5543 8.9535C53.6782 8.80032 53.7755 8.62736 53.842 8.44188C53.9259 8.19678 54.0607 7.97217 54.2377 7.7828C54.2879 7.73242 54.3493 7.69457 54.4169 7.67234C54.4845 7.6501 54.5564 7.64411 54.6267 7.65484C54.6971 7.66556 54.7639 7.69272 54.8218 7.73409C54.8797 7.77545 54.927 7.82987 54.9598 7.89293C55.0266 8.13619 55.0037 8.39532 54.8954 8.62316C54.8197 8.85501 54.7071 9.07314 54.5619 9.26915C54.3186 9.58967 53.9872 9.83257 53.6082 9.96823C53.1694 10.1274 52.6909 10.1411 52.2438 10.0072C52.1847 9.98269 52.134 9.94157 52.0979 9.88882C52.0618 9.83607 52.0418 9.77398 52.0405 9.7101C52.0391 9.64621 52.0563 9.58331 52.0901 9.52904C52.1238 9.47477 52.1726 9.43148 52.2306 9.40444L52.9764 9.09947C53.0156 9.08205 53.0579 9.07252 53.1008 9.07144C53.1437 9.07036 53.1864 9.07774 53.2265 9.09316C53.2665 9.10859 53.3032 9.13175 53.3342 9.16132C53.3653 9.19089 53.3903 9.2263 53.4077 9.26552C53.425 9.30473 53.4345 9.34699 53.4355 9.38986C53.4366 9.43274 53.4291 9.47539 53.4136 9.51539C53.3981 9.55538 53.3749 9.59194 53.3452 9.62295C53.3156 9.65397 53.2801 9.67884 53.2408 9.69615L53.2394 9.69676L52.4937 10.0017L52.4805 9.39899C52.5735 9.42583 52.6693 9.44218 52.766 9.44775C52.8691 9.45808 52.9733 9.45369 53.0752 9.43473C53.1728 9.42194 53.2687 9.39857 53.3613 9.36503C53.4206 9.3434 53.4787 9.31878 53.5355 9.29127C53.5561 9.28126 53.5766 9.27088 53.5968 9.2601C53.5953 9.26088 53.6821 9.21041 53.6441 9.23412C53.7405 9.17254 53.831 9.10212 53.9144 9.02376C53.9438 8.99597 53.9709 8.96583 53.9955 8.93362C54.0379 8.88148 54.0773 8.8269 54.1134 8.77017C54.1869 8.65002 54.2451 8.5212 54.2867 8.38668C54.3056 8.33014 54.3216 8.27266 54.3346 8.21446C54.3382 8.18251 54.344 8.15085 54.3519 8.11969C54.3796 8.04545 54.3467 8.16304 54.3785 8.19521L54.516 8.29641C54.5418 8.3041 54.569 8.30588 54.5956 8.30163C54.6222 8.29737 54.6475 8.28719 54.6696 8.27184C54.6859 8.24894 54.6824 8.25274 54.659 8.28323C54.6317 8.31912 54.6068 8.35669 54.5843 8.39573C54.5351 8.48763 54.4905 8.58198 54.4508 8.6784C54.3687 8.88346 54.265 9.07918 54.1414 9.26224C54.0202 9.44739 53.8436 9.5896 53.6368 9.66861C53.43 9.74761 53.2035 9.75938 52.9895 9.70222C52.9093 9.67029 52.8448 9.60812 52.81 9.5291C52.7752 9.45009 52.7729 9.36058 52.8035 9.27988C52.8363 9.20035 52.8986 9.13659 52.9774 9.10195C53.0562 9.06731 53.1454 9.06447 53.2262 9.09403Z" fill="#2F2E41"/>
</g>
<defs>
<clipPath id="clip0_186_149">
<rect width="188" height="125" fill="white"/>
</clipPath>
</defs>
</svg>
