<svg width="661" height="800" viewBox="0 0 661 800" fill="none" xmlns="http://www.w3.org/2000/svg">
<path d="M307.96 181.85L324.707 169.471C330.288 176.486 337.856 178.647 345.763 182.871C359.043 190.022 320.223 263.578 320.223 263.578L257.905 185.936C257.905 185.936 277.726 172.765 284.161 167.6L307.96 181.85Z" fill="white"/>
<path d="M277.504 170.971C279.656 169.127 281.804 163.585 283.764 156.734C278.143 153.017 273.821 147.639 271.401 141.349C268.98 135.06 268.582 128.172 270.261 121.646C271.94 115.119 275.613 109.279 280.768 104.938C285.923 100.598 292.304 97.9732 299.021 97.4303C305.738 96.8874 312.458 98.4531 318.243 101.909C324.028 105.366 328.591 110.54 331.297 116.713C334.002 122.885 334.715 129.747 333.336 136.344C331.957 142.94 328.555 148.942 323.604 153.514C323.541 160.366 323.839 167.216 324.496 174.036C324.496 174.036 312.946 184.805 302.727 185.829C302.227 185.879 301.697 185.903 301.144 185.903C290.41 185.901 270.703 176.799 277.504 170.971Z" fill="#ED9DA0"/>
<path d="M374.369 381.063C374.369 381.063 374.369 530.217 350.869 584.363L296.723 705.934C296.723 705.934 261.991 703.89 259.947 689.59L300.811 562.911L325.33 488.333L331.46 371.87L374.369 381.063Z" fill="#2F2E41"/>
<path d="M340.657 385.149L331.462 447.467L337.591 584.367L340.656 659.967C340.656 659.967 352.915 693.681 348.829 696.746L340.656 702.874C340.656 702.874 307.965 698.787 306.942 696.745C305.919 694.703 286.51 540.435 286.51 540.435C286.51 540.435 246.667 415.803 248.71 413.761C250.753 411.719 259.947 381.07 259.947 381.07L340.657 385.149Z" fill="#2F2E41"/>
<path d="M347.807 692.652L351.894 716.152C351.894 716.152 363.356 758.952 351.894 764.167C340.432 769.382 320.224 750.886 319.203 742.714C318.182 734.542 321.246 697.763 321.246 697.763L347.807 692.652Z" fill="#2F2E41"/>
<path d="M247.69 402.516C247.69 402.516 253.819 427.035 260.971 424.991V396.391L257.906 391.283L247.69 402.516Z" fill="#ED9DA0"/>
<path d="M295.706 700.826C295.706 700.826 303.879 717.171 308.987 719.215C314.095 721.259 337.356 734.622 323.687 743.265C310.018 751.908 295.71 743.733 295.71 743.733L248.717 718.193C248.717 718.193 254.846 692.653 264.041 690.609C273.236 688.565 295.706 700.826 295.706 700.826Z" fill="#2F2E41"/>
<path d="M399.911 403.539C399.911 403.539 396.846 444.403 379.479 442.36C362.112 440.317 382.544 396.387 382.544 396.387L399.911 403.539Z" fill="#ED9DA0"/>
<path d="M377.433 400.472L379.918 365.737L374.077 342.831C376.066 367.103 376.516 387.798 372.326 388.216C363.62 389.087 288.155 389.957 264.761 387.035L247.691 409.672C232.367 397.412 234.41 382.089 234.41 382.089L215 318.748C215 318.748 215 242.125 216.021 226.8C217.042 211.475 232.367 195.13 232.367 195.13L233.858 194.786C239.951 190.504 265.29 180.972 265.29 180.972L318.182 244.172C318.182 244.172 345.561 196.44 342.6 180.972C342.6 180.972 377.7 189.825 383.778 201.878L384.586 202.278C384.586 202.278 400.932 251.316 400.932 294.225C400.932 337.134 404 365.741 404 365.741L401.951 409.672L377.433 400.472ZM249.733 325.898L252.333 336.481C255.568 332.097 257.923 327.968 255.862 324.881C251.776 318.752 250.754 320.795 251.776 316.708C252.205 314.991 251.913 304.436 251.43 292.771L249.733 325.898Z" fill="#B18CD8"/>
<path d="M329.618 109.553C329.618 109.553 337.96 93.6059 319.608 92.1529C319.608 92.1529 303.963 77.9609 288.016 89.5579C288.016 89.5579 279.316 89.5579 274.561 99.4009C274.561 99.4009 267.72 96.8059 266.216 103.75C266.216 103.75 261.21 118.25 266.216 131.295C271.222 144.34 273.281 145.17 273.281 145.17C273.281 145.17 264.659 118.438 284.681 116.988C304.703 115.538 327.108 103.026 328.781 118.973C330.454 134.92 332.96 138.849 332.96 138.849C332.96 138.849 348.805 116.077 329.618 109.553Z" fill="#090814"/>
<path d="M116.64 112.963V94.3231C116.64 91.6441 118.297 89.1142 121.183 87.3822C124.062 85.7652 127.319 84.9439 130.62 85.003C133.921 84.9436 137.179 85.7649 140.057 87.3822C142.945 89.1142 144.6 91.6441 144.6 94.3231V112.963C144.6 118.189 138.459 122.283 130.62 122.283C122.781 122.283 116.64 118.189 116.64 112.963ZM121.3 112.963C121.3 115.163 125.286 117.623 130.62 117.623C135.02 117.623 139.94 115.63 139.94 112.963V110.644C137.092 112.224 133.877 113.024 130.62 112.963C127.363 113.024 124.148 112.224 121.3 110.644V112.963ZM121.3 103.643C121.3 105.843 125.286 108.303 130.62 108.303C135.02 108.303 139.94 106.31 139.94 103.643V101.324C137.092 102.904 133.877 103.704 130.62 103.643C127.363 103.704 124.148 102.904 121.3 101.324V103.643ZM123.581 91.378C122.132 92.248 121.3 93.3211 121.3 94.3231C121.3 96.5231 125.286 98.983 130.62 98.983C135.02 98.983 139.94 96.9901 139.94 94.3231C139.94 93.3231 139.108 92.248 137.659 91.378C135.502 90.203 133.076 89.612 130.62 89.6632C128.164 89.612 125.738 90.203 123.581 91.378ZM102.66 114.269V112.963H100.33C99.7121 112.963 99.1191 112.718 98.6821 112.281C98.2452 111.844 98 111.251 98 110.633C98 110.015 98.2452 109.422 98.6821 108.985C99.1191 108.548 99.7121 108.303 100.33 108.303H106.156C106.465 108.303 106.761 108.179 106.979 107.961C107.197 107.742 107.32 107.446 107.32 107.137C107.32 106.828 107.197 106.532 106.979 106.314C106.761 106.095 106.465 105.972 106.156 105.972H103.826C102.281 105.97 100.8 105.356 99.708 104.264C98.6158 103.172 98.0016 101.691 98 100.146C98.0014 98.8038 98.4655 97.5031 99.3145 96.4635C100.163 95.4238 101.345 94.7088 102.66 94.439V93.397C102.66 92.7791 102.905 92.1865 103.342 91.7496C103.779 91.3126 104.372 91.067 104.99 91.067C105.608 91.067 106.201 91.3126 106.638 91.7496C107.075 92.1865 107.32 92.7791 107.32 93.397V94.3221H109.65C110.268 94.3221 110.86 94.5675 111.297 95.0045C111.734 95.4414 111.98 96.0342 111.98 96.6522C111.98 97.2701 111.734 97.8627 111.297 98.2996C110.86 98.7366 110.268 98.982 109.65 98.982H103.826C103.517 98.982 103.221 99.1046 103.002 99.3228C102.783 99.5411 102.66 99.8372 102.66 100.146C102.66 100.455 102.783 100.752 103.002 100.97C103.221 101.189 103.517 101.312 103.826 101.312H106.156C107.7 101.314 109.18 101.928 110.272 103.02C111.364 104.112 111.978 105.592 111.98 107.136C111.978 108.478 111.513 109.779 110.665 110.819C109.816 111.859 108.635 112.574 107.32 112.845V114.268C107.32 114.886 107.075 115.479 106.638 115.916C106.201 116.353 105.608 116.598 104.99 116.598C104.684 116.598 104.381 116.538 104.098 116.421C103.815 116.305 103.558 116.133 103.341 115.917C103.125 115.7 102.953 115.444 102.836 115.161C102.719 114.878 102.658 114.575 102.658 114.269H102.66Z" fill="#B18CD8"/>
<path d="M188.964 538.757C187.383 538.755 185.867 538.126 184.749 537.008C183.631 535.891 183.002 534.375 183 532.794V508.94C183.002 507.359 183.631 505.843 184.749 504.725C185.867 503.607 187.383 502.978 188.964 502.976H191.29C191.587 502.137 192.068 501.375 192.699 500.747C193.251 500.191 193.908 499.751 194.632 499.451C195.356 499.151 196.133 498.998 196.916 499H200.891C202.124 499.001 203.327 499.384 204.333 500.096C205.34 500.808 206.103 501.814 206.515 502.976H208.843C210.424 502.978 211.94 503.606 213.059 504.725C214.177 505.843 214.806 507.359 214.807 508.94V532.794C214.805 534.375 214.176 535.891 213.058 537.009C211.94 538.127 210.424 538.755 208.843 538.757H188.964ZM186.976 508.941V532.795C186.977 533.322 187.186 533.827 187.559 534.2C187.932 534.573 188.437 534.782 188.964 534.783H208.842C209.369 534.782 209.874 534.573 210.247 534.2C210.619 533.827 210.829 533.322 210.83 532.795V508.941C210.83 508.414 210.62 507.908 210.247 507.536C209.874 507.163 209.369 506.954 208.842 506.953H206.514C206.102 508.115 205.339 509.121 204.333 509.833C203.326 510.545 202.123 510.928 200.89 510.929H196.915C195.682 510.928 194.479 510.545 193.473 509.833C192.466 509.121 191.704 508.115 191.292 506.953H188.963C188.436 506.954 187.931 507.163 187.559 507.536C187.186 507.908 186.977 508.414 186.976 508.941ZM195.509 503.559C195.324 503.743 195.177 503.962 195.078 504.204C194.978 504.445 194.927 504.704 194.928 504.965C194.928 505.492 195.138 505.997 195.511 506.37C195.883 506.743 196.389 506.952 196.916 506.953H200.891C201.418 506.952 201.923 506.743 202.296 506.37C202.669 505.997 202.878 505.492 202.879 504.965C202.878 504.438 202.669 503.933 202.296 503.56C201.923 503.187 201.418 502.977 200.891 502.977H196.916C196.655 502.976 196.396 503.027 196.154 503.127C195.913 503.227 195.693 503.374 195.509 503.559ZM202.879 528.38V516.247C202.827 515.663 203.006 515.082 203.377 514.628C203.749 514.174 204.284 513.885 204.867 513.821C205.45 513.884 205.985 514.174 206.357 514.628C206.729 515.081 206.907 515.663 206.855 516.247V528.379C206.907 528.963 206.729 529.545 206.357 529.999C205.985 530.452 205.45 530.742 204.867 530.806C204.283 530.742 203.749 530.452 203.377 529.999C203.005 529.545 202.826 528.963 202.878 528.379L202.879 528.38ZM196.916 528.629V526.452C196.892 525.9 197.087 525.361 197.459 524.953C197.832 524.544 198.351 524.3 198.903 524.274C199.455 524.3 199.974 524.544 200.347 524.952C200.719 525.361 200.915 525.9 200.891 526.452V528.629C200.915 529.181 200.719 529.72 200.347 530.129C199.974 530.537 199.455 530.781 198.903 530.807C198.351 530.781 197.832 530.537 197.459 530.128C197.087 529.72 196.892 529.181 196.916 528.629ZM190.952 528.579V521.896C190.922 521.338 191.114 520.79 191.487 520.373C191.859 519.955 192.382 519.703 192.94 519.669C193.498 519.702 194.021 519.955 194.393 520.372C194.766 520.79 194.958 521.337 194.928 521.896V528.579C194.958 529.138 194.766 529.685 194.394 530.103C194.021 530.52 193.498 530.774 192.94 530.807C192.382 530.773 191.859 530.52 191.487 530.103C191.114 529.685 190.922 529.138 190.952 528.579Z" fill="#B18CD8"/>
<path d="M464.399 201.592L453.609 190.802C453.393 190.587 453.228 190.327 453.124 190.041C453.02 189.755 452.981 189.449 453.009 189.146L454.552 172.239C454.576 171.967 454.654 171.703 454.781 171.462C454.907 171.221 455.08 171.007 455.289 170.833C455.499 170.658 455.741 170.527 456.001 170.446C456.261 170.365 456.534 170.337 456.805 170.362C457.125 170.39 457.433 170.493 457.705 170.662H469.644C471.458 169.574 473.532 169 475.647 169C477.761 169 479.836 169.574 481.65 170.662L482.427 171.125L482.437 171.131C482.702 171.29 483.016 171.346 483.32 171.287L485.013 170.946C485.36 170.524 485.861 170.257 486.406 170.204C486.677 170.176 486.951 170.202 487.213 170.28C487.474 170.359 487.718 170.488 487.929 170.66C488.14 170.833 488.316 171.045 488.445 171.285C488.574 171.526 488.655 171.789 488.682 172.061L490.342 188.723C490.371 189.011 490.339 189.303 490.249 189.578C490.158 189.854 490.011 190.107 489.817 190.323C489.622 190.537 489.384 190.709 489.119 190.826C488.855 190.944 488.568 191.005 488.279 191.005H487.232C487.232 191.739 487.088 192.465 486.807 193.144C486.527 193.822 486.115 194.438 485.596 194.957C485.076 195.476 484.459 195.889 483.78 196.169C483.101 196.45 482.373 196.594 481.639 196.593C481.505 196.593 481.372 196.588 481.239 196.579C480.988 197.535 480.487 198.408 479.786 199.106C479.267 199.626 478.65 200.039 477.971 200.319C477.292 200.6 476.564 200.744 475.829 200.742C474.97 200.743 474.122 200.546 473.351 200.167C473.084 200.696 472.735 201.178 472.316 201.595C471.796 202.115 471.179 202.528 470.5 202.808C469.821 203.089 469.094 203.233 468.359 203.231C467.623 203.233 466.894 203.089 466.215 202.807C465.535 202.526 464.918 202.112 464.399 201.592ZM457.231 188.556L467.33 198.656C467.602 198.927 467.97 199.079 468.353 199.079C468.737 199.079 469.105 198.927 469.377 198.656C469.648 198.384 469.8 198.016 469.8 197.633C469.8 197.25 469.648 196.882 469.377 196.611L469.358 196.591L468.547 195.781C468.158 195.391 467.939 194.863 467.939 194.313C467.939 193.763 468.158 193.235 468.547 192.845C468.739 192.653 468.968 192.5 469.22 192.395C469.471 192.291 469.741 192.237 470.014 192.237C470.287 192.237 470.557 192.291 470.808 192.395C471.06 192.5 471.289 192.653 471.482 192.845L474.802 196.166C475.073 196.437 475.441 196.589 475.825 196.589C476.208 196.589 476.576 196.437 476.847 196.166C477.118 195.894 477.27 195.526 477.27 195.143C477.27 194.76 477.118 194.392 476.847 194.121L473.527 190.8C473.334 190.607 473.181 190.378 473.076 190.126C472.972 189.875 472.919 189.605 472.919 189.333C472.919 189.06 472.972 188.79 473.076 188.539C473.181 188.287 473.334 188.058 473.527 187.865C473.719 187.673 473.948 187.52 474.2 187.415C474.451 187.311 474.721 187.257 474.994 187.257C475.267 187.257 475.537 187.311 475.788 187.415C476.04 187.52 476.269 187.673 476.462 187.865L479.762 191.166L479.782 191.185L479.801 191.204L480.613 192.015C480.884 192.286 481.251 192.438 481.635 192.438C482.018 192.438 482.385 192.286 482.657 192.015C482.928 191.743 483.08 191.375 483.08 190.991C483.08 190.608 482.928 190.24 482.657 189.969L476.218 183.529C475.672 182.986 474.934 182.681 474.164 182.681C473.395 182.681 472.657 182.986 472.112 183.529L470.653 184.989C469.603 186.037 468.179 186.626 466.696 186.626C465.212 186.626 463.789 186.037 462.739 184.989C461.69 183.939 461.101 182.515 461.101 181.031C461.101 179.548 461.69 178.124 462.739 177.074L465.007 174.807H458.486L457.231 188.556ZM485.983 186.855L484.824 175.218L484.136 175.356H484.128C482.815 175.616 481.452 175.377 480.305 174.688L479.529 174.224C478.089 173.361 476.403 173.004 474.738 173.209C473.072 173.414 471.523 174.169 470.336 175.354L465.674 180.018C465.539 180.152 465.433 180.311 465.36 180.487C465.288 180.662 465.25 180.85 465.25 181.04C465.25 181.23 465.288 181.418 465.36 181.594C465.433 181.769 465.539 181.928 465.674 182.062C465.945 182.333 466.312 182.486 466.696 182.486C467.079 182.486 467.446 182.333 467.718 182.062L469.18 180.603C470.504 179.283 472.296 178.542 474.165 178.542C476.034 178.542 477.828 179.283 479.152 180.603L485.405 186.856L485.983 186.855Z" fill="#B18CD8"/>
<path d="M260.469 0H258.916V4.66H260.469V0Z" fill="#E5E5E5"/>
</svg>
