<svg width="175" height="194" viewBox="0 0 175 194" fill="none" xmlns="http://www.w3.org/2000/svg">
<path d="M89.6556 44.0987L93.714 41.0968C95.0665 42.7979 96.9006 43.322 98.8167 44.3463C102.035 46.0804 92.6274 63.9177 92.6274 63.9177L77.5253 45.0895C77.5253 45.0895 82.3287 41.8956 83.8882 40.6431L89.6556 44.0987Z" fill="white"/>
<path d="M82.2749 41.4605C82.7964 41.0133 83.317 39.6693 83.792 38.008C82.4297 37.1066 81.3824 35.8024 80.7958 34.2772C80.2093 32.752 80.1127 31.0818 80.5196 29.4991C80.9266 27.9164 81.8166 26.5001 83.0659 25.4475C84.3152 24.395 85.8615 23.7585 87.4893 23.6269C89.1172 23.4952 90.7455 23.8749 92.1475 24.713C93.5495 25.5512 94.6553 26.806 95.311 28.3028C95.9666 29.7995 96.1394 31.4637 95.8052 33.0633C95.4711 34.663 94.6466 36.1185 93.4467 37.2271C93.4315 38.8886 93.5037 40.5498 93.6629 42.2037C93.6629 42.2037 90.8639 44.8152 88.3874 45.0635C88.2663 45.0756 88.1378 45.0815 88.0038 45.0815C85.4025 45.081 80.6268 42.8737 82.2749 41.4605Z" fill="#ED9DA0"/>
<path d="M105.749 92.4078C105.749 92.4078 105.749 128.578 100.054 141.708L86.9324 171.189C86.9324 171.189 78.5155 170.693 78.0202 167.226L87.9231 136.506L93.865 118.421L95.3506 90.1785L105.749 92.4078Z" fill="#2F2E41"/>
<path d="M97.5793 93.3987L95.351 108.511L96.8363 141.709L97.5791 160.042C97.5791 160.042 100.55 168.218 99.5597 168.961L97.5791 170.447C97.5791 170.447 89.6568 169.456 89.4089 168.961C89.161 168.466 84.4574 131.056 84.4574 131.056C84.4574 131.056 74.8019 100.832 75.297 100.337C75.7921 99.8419 78.0202 92.4095 78.0202 92.4095L97.5793 93.3987Z" fill="#2F2E41"/>
<path d="M99.312 167.968L100.302 173.667C100.302 173.667 103.08 184.046 100.302 185.311C97.5248 186.575 92.6276 182.09 92.3802 180.108C92.1328 178.126 92.8753 169.208 92.8753 169.208L99.312 167.968Z" fill="#2F2E41"/>
<path d="M75.0499 97.6101C75.0499 97.6101 76.5352 103.556 78.2684 103.06V96.1248L77.5256 94.8861L75.0499 97.6101Z" fill="#ED9DA0"/>
<path d="M86.686 169.95C86.686 169.95 88.6666 173.914 89.9045 174.41C91.1424 174.905 96.7794 178.146 93.4669 180.242C90.1544 182.338 86.687 180.355 86.687 180.355L75.2988 174.162C75.2988 174.162 76.7841 167.968 79.0124 167.473C81.2407 166.977 86.686 169.95 86.686 169.95Z" fill="#2F2E41"/>
<path d="M111.939 97.8583C111.939 97.8583 111.196 107.768 106.987 107.272C102.779 106.777 107.73 96.1239 107.73 96.1239L111.939 97.8583Z" fill="#ED9DA0"/>
<path d="M106.492 97.1145L107.094 88.6913L105.678 83.1365C106.16 89.0225 106.269 94.041 105.254 94.1424C103.144 94.3536 84.8561 94.5646 79.1868 93.856L75.0501 99.3455C71.3365 96.3724 71.8316 92.6566 71.8316 92.6566L67.1278 77.2964C67.1278 77.2964 67.1278 58.7153 67.3752 54.999C67.6227 51.2827 71.3365 47.3191 71.3365 47.3191L71.6978 47.2356C73.1744 46.1973 79.315 43.8857 79.315 43.8857L92.1328 59.2117C92.1328 59.2117 98.7678 47.6367 98.0502 43.8857C98.0502 43.8857 106.556 46.0326 108.029 48.9554L108.225 49.0524C108.225 49.0524 112.186 60.9442 112.186 71.3496C112.186 81.755 112.93 88.6922 112.93 88.6922L112.433 99.3455L106.492 97.1145ZM75.545 79.0303L76.175 81.5967C76.959 80.5336 77.5297 79.5323 77.0302 78.7837C76.0401 77.2974 75.7924 77.7928 76.0401 76.8017C76.144 76.3853 76.0733 73.8258 75.9562 70.997L75.545 79.0303Z" fill="#B18CD8"/>
<path d="M94.9042 26.5666C94.9042 26.5666 96.9258 22.6995 92.4784 22.3471C92.4784 22.3471 88.687 18.9056 84.8224 21.7178C84.8224 21.7178 82.7141 21.7178 81.5617 24.1048C81.5617 24.1048 79.9039 23.4755 79.5394 25.1594C79.5394 25.1594 78.3263 28.6757 79.5394 31.8391C80.7526 35.0025 81.2515 35.2038 81.2515 35.2038C81.2515 35.2038 79.1621 28.7212 84.0142 28.3696C88.8663 28.018 94.2959 24.9838 94.7013 28.851C95.1068 32.7181 95.7141 33.6709 95.7141 33.6709C95.7141 33.6709 99.5539 28.1487 94.9042 26.5666Z" fill="#090814"/>
<path d="M43.2914 27.3936V22.8734C43.2914 22.2237 43.6929 21.6102 44.3923 21.1902C45.0899 20.7981 45.8793 20.5989 46.6793 20.6133C47.4793 20.5989 48.2687 20.798 48.9662 21.1902C49.6661 21.6102 50.0672 22.2237 50.0672 22.8734V27.3936C50.0672 28.6609 48.579 29.6537 46.6793 29.6537C44.7796 29.6537 43.2914 28.6609 43.2914 27.3936ZM44.4206 27.3936C44.4206 27.9271 45.3867 28.5237 46.6793 28.5237C47.7456 28.5237 48.9378 28.0403 48.9378 27.3936V26.8312C48.2476 27.2144 47.4685 27.4083 46.6793 27.3936C45.8901 27.4083 45.1109 27.2144 44.4206 26.8312V27.3936ZM44.4206 25.1335C44.4206 25.667 45.3867 26.2635 46.6793 26.2635C47.7456 26.2635 48.9378 25.7803 48.9378 25.1335V24.5711C48.2476 24.9543 47.4685 25.1483 46.6793 25.1335C45.8901 25.1483 45.1109 24.9543 44.4206 24.5711V25.1335ZM44.9734 22.1592C44.6223 22.3702 44.4206 22.6304 44.4206 22.8734C44.4206 23.4069 45.3867 24.0034 46.6793 24.0034C47.7456 24.0034 48.9378 23.5201 48.9378 22.8734C48.9378 22.6309 48.7362 22.3702 48.385 22.1592C47.8623 21.8743 47.2744 21.731 46.6793 21.7434C46.0842 21.731 45.4962 21.8743 44.9734 22.1592ZM39.9034 27.7103V27.3936H39.3388C39.1891 27.3936 39.0454 27.3341 38.9395 27.2281C38.8336 27.1221 38.7742 26.9784 38.7742 26.8286C38.7742 26.6787 38.8336 26.535 38.9395 26.429C39.0454 26.3231 39.1891 26.2635 39.3388 26.2635H40.7506C40.8255 26.2634 40.8972 26.2335 40.9501 26.1805C41.003 26.1275 41.0327 26.0557 41.0327 25.9808C41.0327 25.9059 41.003 25.8341 40.9501 25.7811C40.8972 25.7281 40.8255 25.6983 40.7506 25.6983H40.186C39.8116 25.6979 39.4528 25.5489 39.1881 25.2841C38.9234 25.0192 38.7746 24.6601 38.7742 24.2855C38.7745 23.96 38.887 23.6446 39.0927 23.3924C39.2984 23.1403 39.5847 22.9669 39.9034 22.9015V22.6488C39.9034 22.499 39.9629 22.3553 40.0688 22.2493C40.1747 22.1434 40.3183 22.0838 40.4681 22.0838C40.6178 22.0838 40.7615 22.1434 40.8674 22.2493C40.9733 22.3553 41.0327 22.499 41.0327 22.6488V22.8732H41.5974C41.7471 22.8732 41.8907 22.9327 41.9966 23.0386C42.1025 23.1446 42.1621 23.2883 42.1621 23.4382C42.1621 23.5881 42.1025 23.7317 41.9966 23.8377C41.8907 23.9437 41.7471 24.0032 41.5974 24.0032H40.186C40.1111 24.0032 40.0393 24.0329 39.9863 24.0858C39.9334 24.1388 39.9035 24.2106 39.9034 24.2855C39.9035 24.3604 39.9334 24.4323 39.9863 24.4853C40.0393 24.5384 40.111 24.5682 40.186 24.5682H40.7506C41.1248 24.5687 41.4836 24.7177 41.7481 24.9824C42.0127 25.2472 42.1615 25.6061 42.1621 25.9805C42.1616 26.3061 42.049 26.6215 41.8433 26.8736C41.6376 27.1258 41.3513 27.2993 41.0327 27.365V27.7101C41.0327 27.8599 40.9733 28.0036 40.8674 28.1096C40.7615 28.2155 40.6178 28.2751 40.4681 28.2751C40.3939 28.2751 40.3204 28.2606 40.2519 28.2323C40.1833 28.2039 40.1211 28.1623 40.0686 28.1098C40.0161 28.0574 39.9745 27.9951 39.9461 27.9266C39.9177 27.858 39.9029 27.7845 39.9029 27.7103H39.9034Z" fill="#B18CD8"/>
<path d="M60.8182 130.649C60.4351 130.648 60.0677 130.496 59.7968 130.225C59.5258 129.954 59.3734 129.586 59.3729 129.203V123.418C59.3734 123.035 59.5258 122.667 59.7968 122.396C60.0677 122.125 60.435 121.972 60.8182 121.972H61.3819C61.4538 121.768 61.5704 121.583 61.7233 121.431C61.8572 121.296 62.0165 121.19 62.1919 121.117C62.3673 121.044 62.5554 121.007 62.7453 121.008H63.7086C64.0075 121.008 64.2988 121.101 64.5429 121.273C64.7869 121.446 64.9716 121.69 65.0716 121.972H65.6356C66.0188 121.972 66.3863 122.125 66.6573 122.396C66.9282 122.667 67.0806 123.035 67.081 123.418V129.203C67.0806 129.586 66.9281 129.954 66.6572 130.225C66.3862 130.496 66.0188 130.648 65.6356 130.649H60.8182ZM60.3365 123.418V129.203C60.3367 129.331 60.3875 129.453 60.4778 129.544C60.5681 129.634 60.6905 129.685 60.8182 129.685H65.6354C65.7631 129.685 65.8855 129.634 65.9758 129.544C66.0661 129.453 66.117 129.331 66.1172 129.203V123.418C66.1171 123.29 66.0663 123.168 65.9759 123.077C65.8856 122.987 65.7631 122.936 65.6354 122.936H65.0713C64.9714 123.218 64.7866 123.462 64.5426 123.635C64.2986 123.807 64.0072 123.9 63.7084 123.9H62.7451C62.4463 123.9 62.1548 123.807 61.9109 123.635C61.6669 123.462 61.4823 123.218 61.3824 122.936H60.818C60.6903 122.936 60.5679 122.987 60.4776 123.077C60.3874 123.168 60.3367 123.291 60.3365 123.418ZM62.4043 122.113C62.3595 122.158 62.324 122.211 62.2998 122.269C62.2756 122.328 62.2633 122.391 62.2635 122.454C62.2636 122.582 62.3144 122.704 62.4048 122.795C62.4951 122.885 62.6176 122.936 62.7453 122.936H63.7086C63.8364 122.936 63.9587 122.885 64.0491 122.795C64.1394 122.704 64.1902 122.582 64.1904 122.454C64.1902 122.326 64.1394 122.204 64.0491 122.113C63.9587 122.023 63.8364 121.972 63.7086 121.972H62.7453C62.682 121.972 62.6192 121.984 62.5607 122.008C62.5022 122.033 62.449 122.068 62.4043 122.113ZM64.1904 128.132V125.19C64.1777 125.048 64.2211 124.907 64.3112 124.797C64.4012 124.687 64.5308 124.617 64.6721 124.602C64.8134 124.617 64.9431 124.687 65.0332 124.797C65.1233 124.907 65.1666 125.048 65.1539 125.19V128.132C65.1666 128.274 65.1233 128.415 65.0332 128.525C64.9431 128.635 64.8134 128.705 64.6721 128.721C64.5307 128.705 64.4012 128.635 64.311 128.525C64.2209 128.415 64.1775 128.274 64.1901 128.132L64.1904 128.132ZM62.7453 128.193V127.665C62.7395 127.531 62.7868 127.4 62.877 127.301C62.9673 127.202 63.093 127.143 63.2268 127.137C63.3606 127.143 63.4864 127.202 63.5767 127.301C63.667 127.4 63.7145 127.531 63.7086 127.665V128.193C63.7145 128.326 63.667 128.457 63.5767 128.556C63.4864 128.655 63.3606 128.714 63.2268 128.721C63.093 128.714 62.9673 128.655 62.877 128.556C62.7868 128.457 62.7395 128.326 62.7453 128.193ZM61.3 128.18V126.56C61.2928 126.424 61.3394 126.292 61.4296 126.19C61.5199 126.089 61.6465 126.028 61.7818 126.02C61.9171 126.028 62.0436 126.089 62.1339 126.19C62.2242 126.292 62.2708 126.424 62.2635 126.56V128.18C62.2708 128.316 62.2243 128.449 62.134 128.55C62.0438 128.651 61.9171 128.713 61.7818 128.721C61.6464 128.713 61.5199 128.651 61.4296 128.55C61.3394 128.449 61.2928 128.316 61.3 128.18Z" fill="#B18CD8"/>
<path d="M127.567 48.886L124.952 46.2694C124.9 46.2173 124.86 46.1544 124.834 46.085C124.809 46.0156 124.8 45.9415 124.806 45.8681L125.18 41.7679C125.186 41.7021 125.205 41.6381 125.236 41.5796C125.267 41.5211 125.308 41.4693 125.359 41.427C125.41 41.3847 125.469 41.3529 125.532 41.3333C125.595 41.3137 125.661 41.3067 125.727 41.3127C125.804 41.3197 125.879 41.3446 125.945 41.3855H128.838C129.277 41.1218 129.78 40.9825 130.293 40.9825C130.805 40.9825 131.308 41.1218 131.747 41.3855L131.936 41.4977L131.938 41.4992C132.002 41.5379 132.079 41.5514 132.152 41.537L132.562 41.4543C132.647 41.352 132.768 41.2874 132.9 41.2744C132.966 41.2677 133.032 41.274 133.095 41.293C133.159 41.312 133.218 41.3433 133.269 41.3851C133.32 41.427 133.363 41.4785 133.394 41.5368C133.425 41.595 133.445 41.6589 133.452 41.7247L133.854 45.7653C133.861 45.8353 133.853 45.906 133.831 45.9728C133.809 46.0396 133.774 46.1011 133.726 46.1533C133.679 46.2053 133.622 46.2469 133.558 46.2754C133.493 46.3039 133.424 46.3186 133.354 46.3187H133.1C133.1 46.4967 133.065 46.6729 132.997 46.8374C132.929 47.0018 132.829 47.1512 132.704 47.277C132.578 47.4031 132.428 47.503 132.264 47.5711C132.099 47.6392 131.923 47.6741 131.745 47.6737C131.712 47.6737 131.68 47.6726 131.648 47.6704C131.587 47.9024 131.465 48.114 131.296 48.2834C131.17 48.4094 131.02 48.5094 130.856 48.5775C130.691 48.6456 130.515 48.6804 130.337 48.6801C130.129 48.6802 129.923 48.6325 129.736 48.5407C129.672 48.6687 129.587 48.7856 129.485 48.8869C129.359 49.013 129.21 49.113 129.045 49.1811C128.881 49.2492 128.704 49.284 128.526 49.2837C128.348 49.284 128.172 49.249 128.007 49.1808C127.842 49.1125 127.693 49.0123 127.567 48.886ZM125.83 45.7248L128.277 48.174C128.343 48.2397 128.432 48.2767 128.525 48.2767C128.618 48.2767 128.707 48.2397 128.773 48.174C128.839 48.1082 128.876 48.019 128.876 47.9261C128.876 47.8331 128.839 47.7439 128.773 47.6781L128.768 47.6733L128.572 47.4768C128.478 47.3824 128.425 47.2544 128.425 47.1209C128.425 46.9875 128.478 46.8595 128.572 46.7651C128.619 46.7183 128.674 46.6812 128.735 46.6559C128.796 46.6306 128.861 46.6175 128.928 46.6175C128.994 46.6175 129.059 46.6306 129.12 46.6559C129.181 46.6812 129.237 46.7183 129.283 46.7651L130.088 47.5702C130.154 47.6359 130.243 47.6728 130.336 47.6728C130.429 47.6728 130.518 47.6359 130.584 47.5702C130.649 47.5043 130.686 47.4152 130.686 47.3222C130.686 47.2293 130.649 47.1401 130.584 47.0743L129.779 46.2689C129.732 46.2222 129.695 46.1668 129.67 46.1057C129.644 46.0447 129.631 45.9793 129.631 45.9132C129.631 45.8471 129.644 45.7817 129.67 45.7206C129.695 45.6596 129.732 45.6041 129.779 45.5574C129.825 45.5106 129.881 45.4736 129.942 45.4482C130.003 45.4229 130.068 45.4099 130.134 45.4099C130.2 45.4099 130.266 45.4229 130.327 45.4482C130.388 45.4736 130.443 45.5106 130.49 45.5574L131.29 46.3577L131.295 46.3623L131.299 46.3669L131.496 46.5636C131.562 46.6293 131.651 46.6661 131.744 46.6661C131.837 46.6661 131.926 46.6293 131.991 46.5636C132.057 46.4978 132.094 46.4085 132.094 46.3155C132.094 46.2224 132.057 46.1332 131.991 46.0674L130.431 44.5057C130.299 44.3741 130.12 44.3003 129.933 44.3003C129.747 44.3003 129.568 44.3741 129.436 44.5057L129.082 44.8598C128.828 45.114 128.483 45.2568 128.123 45.2568C127.764 45.2568 127.419 45.114 127.164 44.8598C126.91 44.6051 126.768 44.26 126.768 43.9002C126.768 43.5403 126.91 43.1952 127.164 42.9406L127.714 42.3907H126.134L125.83 45.7248ZM132.797 45.3125L132.516 42.4903L132.35 42.524H132.348C132.03 42.5868 131.699 42.529 131.422 42.3618L131.233 42.2493C130.884 42.0401 130.476 41.9535 130.072 42.0032C129.669 42.0529 129.293 42.236 129.006 42.5235L127.876 43.6543C127.843 43.6869 127.817 43.7255 127.8 43.768C127.782 43.8106 127.773 43.8562 127.773 43.9023C127.773 43.9483 127.782 43.9939 127.8 44.0365C127.817 44.079 127.843 44.1176 127.876 44.1502C127.941 44.2159 128.03 44.2528 128.123 44.2528C128.216 44.2528 128.305 44.2159 128.371 44.1502L128.725 43.7962C129.046 43.4762 129.481 43.2966 129.934 43.2966C130.387 43.2966 130.821 43.4762 131.142 43.7962L132.657 45.3127L132.797 45.3125Z" fill="#B18CD8"/>
<path d="M78.1467 0H77.7703V1.13005H78.1467V0Z" fill="#E5E5E5"/>
</svg>
