<svg width="231" height="375" viewBox="0 0 231 375" fill="none" xmlns="http://www.w3.org/2000/svg">
<g clip-path="url(#clip0_20_411)">
<path d="M220.815 253.103L218.063 362.544L217.19 375H180.31L178.981 350.997L168.199 259.513L220.815 253.103Z" fill="#ED9DA0"/>
<path d="M59.5334 346.045L53.2935 374.917H180.076L175.512 359.602L59.5334 346.045Z" fill="#090814"/>
<path d="M17.4245 324.322L0.0182296 345.744C0.0182296 345.744 -1.29029 374.918 17.4245 374.918C36.1392 374.918 63.8123 320.249 63.8123 320.249L44.3488 271.06L12.9725 263.359L17.4245 324.322Z" fill="#ED9DA0"/>
<path d="M146.18 161.068C146.18 161.068 124.162 243.56 88.3827 170.967L41.0903 192.883C41.0903 192.883 44.3928 317.172 54.3008 334.773C54.3008 334.773 43.8434 351.273 56.5026 354.571C69.1618 357.869 62.5572 352.372 69.1627 357.871C75.7682 363.37 88.9786 354.021 88.9786 354.021C88.9786 354.021 155.8 379.485 175.51 359.603V277.244C175.51 277.244 208.979 246.782 230.996 268.78C230.996 268.78 226.593 198.937 201.822 183.538C177.051 168.139 146.178 161.071 146.178 161.071L146.18 161.068Z" fill="#B18CD8"/>
<path d="M51.277 198.656L41.0937 192.883C41.0937 192.883 1.73492 262.452 6.14044 272.351C10.546 282.25 62.2866 281.7 62.2866 281.7L51.277 198.656Z" fill="#DADADA"/>
<path d="M42.7138 173.007L31.518 259.944C30.3504 259.198 29.2291 258.383 28.1602 257.502L35.3155 172.259L42.7138 173.009V173.007Z" fill="#090814"/>
<path d="M142.17 81.5522C143.066 78.7866 147.049 77.9775 149.431 79.6425C151.812 81.3075 152.627 84.5742 152.165 87.4425C151.703 90.3108 150.195 92.8894 148.717 95.3911C137.672 114.084 123.156 166.948 112.107 185.644C115.408 187.789 119.199 189.065 123.126 189.354C127.054 189.644 130.99 188.936 134.571 187.298C136.466 190.567 139.248 193.235 142.596 194.993C145.943 196.751 149.72 197.529 153.49 197.235C157.261 196.941 160.871 195.588 163.905 193.333C166.94 191.077 169.274 188.011 170.639 184.487L165.205 197.003C169.765 195.473 173.908 192.908 177.309 189.509C180.71 186.11 183.276 181.97 184.805 177.414L178.855 195.701C191.317 187.971 200.718 138.576 196.455 123.272C196.378 123.002 196.391 122.715 196.491 122.453C196.59 122.19 196.772 121.967 197.009 121.816L197.026 121.806C197.173 121.714 197.3 121.594 197.402 121.454C204.16 111.982 201.548 98.5317 195.844 88.3547C190.095 78.0989 181.64 69.4716 176.582 58.86C169.866 44.7722 169.23 27.4622 158.608 16.0233C151.866 8.76612 141.966 5.08034 132.116 3.98487C122.266 2.8894 112.325 4.14565 102.494 5.39815L103.175 3.81846C94.7151 -2.34325 82.4097 -0.487005 73.7535 5.39956C65.0973 11.2861 59.2594 20.3808 53.6617 29.2228L38.28 53.5224C33.2598 61.4555 13.7667 96.3661 11.9595 105.576C10.1522 114.785 12.37 125.408 19.8256 131.118L22.6585 116.408L21.767 117.179C28.1008 140.189 28.0642 174.232 7.37476 186.157C11.9373 187.436 16.7491 187.545 21.3649 186.473C25.9807 185.402 30.2514 183.184 33.782 180.026L20.5359 194.824C27.7415 194.682 34.7315 192.343 40.5695 188.121L30.4354 200.129L57.5066 186.247L51.8765 200.507L85.723 194.157" fill="#090814"/>
<path d="M167.993 95.1333C168.513 83.9267 165.915 72.7952 160.486 62.975C155.056 53.1548 147.009 45.0301 137.238 39.503C127.467 33.9759 116.353 31.2627 105.131 31.6647C93.9099 32.0666 83.0194 35.5681 73.6693 41.7802C64.3191 47.9923 56.8751 56.6719 52.1639 66.8554C47.4527 77.0389 45.6586 88.3276 46.9808 99.4683C48.303 110.609 52.6897 121.165 59.654 129.966C66.6183 138.766 75.8875 145.466 86.4325 149.321L94.5491 227.325L156.676 180.317C156.676 180.317 144.525 163.274 138.459 144.411C147.076 139.276 154.284 132.087 159.438 123.486C164.592 114.886 167.531 105.143 167.993 95.13V95.1333Z" fill="#ED9DA0"/>
<path d="M101.945 5.40003C111.775 4.148 121.719 2.8941 131.566 3.98675C141.413 5.07941 151.318 8.76472 158.056 16.0228C168.679 27.4603 169.317 44.7722 176.03 58.86C181.089 69.4716 189.546 78.0994 195.292 88.3547C200.996 98.5341 203.608 111.98 196.85 121.454C196.749 121.594 196.621 121.714 196.475 121.806C196.233 121.957 196.049 122.183 195.949 122.45C195.849 122.717 195.84 123.009 195.923 123.281C200.293 137.222 194.219 153.815 181.772 161.536L187.723 143.248C184.749 152.358 175.257 192.045 166.141 195.021L171.575 182.505C170.21 186.029 167.876 189.095 164.841 191.351C161.807 193.606 158.197 194.959 154.426 195.252C150.656 195.546 146.879 194.769 143.532 193.011C140.184 191.253 137.402 188.585 135.507 185.315C131.926 186.954 127.99 187.661 124.062 187.372C120.135 187.083 116.344 185.807 113.043 183.662C124.09 164.966 137.119 114.085 148.166 95.3888C149.645 92.8866 151.151 90.3089 151.614 87.4402C152.077 84.5714 151.264 81.3047 148.88 79.6402C146.496 77.9757 142.516 78.7861 141.619 81.5499" fill="#090814"/>
<path d="M142.327 81.3239L84.5303 35.1263L43.0176 105.429V61.0697L91.1339 14.7797L129.665 18.6296L142.327 81.3239Z" fill="#090814"/>
<path d="M218.886 300.436L88.7202 358.501C86.5975 359.446 84.1865 359.51 82.0163 358.68C79.8461 357.851 78.094 356.195 77.1444 354.076L10.4409 204.813C9.49555 202.692 9.43072 200.284 10.2607 198.115C11.0906 195.947 12.7476 194.196 14.868 193.247L145.035 135.181C147.158 134.238 149.568 134.174 151.738 135.004C153.907 135.833 155.659 137.489 156.609 139.607L223.317 288.873C224.262 290.994 224.326 293.403 223.496 295.571C222.666 297.739 221.008 299.49 218.887 300.439L218.886 300.436Z" fill="#D6D6E3"/>
<path d="M212.89 297.286L92.047 346.146C90.0491 347.034 87.7799 347.095 85.7373 346.314C83.6947 345.533 82.0457 343.975 81.1519 341.98L16.6972 207.283C15.8075 205.287 15.7468 203.02 16.5284 200.979C17.3101 198.938 18.8701 197.29 20.8663 196.397L143.379 141.746C145.376 140.857 147.646 140.797 149.688 141.578C151.731 142.359 153.38 143.917 154.274 145.912L217.059 286.402C217.949 288.398 218.009 290.665 217.228 292.706C216.446 294.747 214.886 296.394 212.89 297.287V297.286Z" fill="white"/>
<path d="M41.364 239.11L36.1492 343.249L0.0197754 345.744L12.6827 237.739C7.68509 232.412 4.69506 224.465 5.11497 215.722C5.84828 200.422 16.7162 188.513 29.3885 189.12C42.0608 189.727 51.7412 202.62 51.005 217.918C50.5851 226.661 46.8482 234.287 41.364 239.11Z" fill="#ED9DA0"/>
<path d="M134.219 183.595L107.937 195.288C103.978 197.049 99.9556 196.653 98.9531 194.403C97.9506 192.154 100.347 188.903 104.306 187.141L130.588 175.448C134.547 173.687 138.569 174.083 139.572 176.332C140.575 178.582 138.178 181.833 134.219 183.595Z" fill="#DADADA"/>
<path d="M109.901 302.344C115.99 302.344 120.927 297.412 120.927 291.328C120.927 285.244 115.99 280.312 109.901 280.312C103.812 280.312 98.8755 285.244 98.8755 291.328C98.8755 297.412 103.812 302.344 109.901 302.344Z" fill="#E6E6E6"/>
<path d="M173.037 263.691L127.324 284.028C126.974 284.192 126.595 284.286 126.208 284.304C125.821 284.321 125.435 284.263 125.071 284.131C124.707 284 124.373 283.798 124.087 283.538C123.801 283.277 123.569 282.963 123.405 282.613C123.101 281.893 123.096 281.083 123.39 280.359C123.684 279.636 124.254 279.059 124.974 278.755L170.687 258.418C171.394 258.087 172.205 258.049 172.94 258.315C173.675 258.58 174.274 259.126 174.606 259.833C174.91 260.553 174.915 261.363 174.621 262.087C174.326 262.81 173.757 263.387 173.036 263.69L173.037 263.691Z" fill="#E6E6E6"/>
<path d="M85.4127 186.583L56.0525 199.414C55.938 199.464 55.8345 199.536 55.7479 199.626C55.6613 199.716 55.5933 199.822 55.5477 199.939C55.5022 200.055 55.48 200.179 55.4825 200.304C55.4849 200.429 55.512 200.552 55.5621 200.666L65.5851 223.557C65.6352 223.672 65.7073 223.775 65.7973 223.862C65.8874 223.948 65.9936 224.016 66.11 224.062C66.2264 224.107 66.3505 224.129 66.4755 224.127C66.6004 224.124 66.7236 224.097 66.8381 224.047L96.1981 211.218C96.4292 211.117 96.6107 210.928 96.7027 210.693C96.7946 210.458 96.7895 210.197 96.6885 209.966L86.6652 187.073C86.564 186.842 86.3752 186.661 86.1404 186.569C85.9055 186.477 85.6438 186.482 85.4127 186.583Z" fill="#F2F2F2"/>
<path d="M71.291 204.329C71.2336 204.279 71.1661 204.243 71.0932 204.222C71.0203 204.202 70.9438 204.198 70.869 204.21C70.7943 204.222 70.7231 204.25 70.6606 204.293C70.598 204.335 70.5455 204.391 70.5068 204.456C70.4379 204.594 70.4082 204.748 70.4208 204.902C70.4335 205.056 70.488 205.203 70.5785 205.328C70.7632 205.575 70.9924 205.785 71.2543 205.949C73.1283 207.281 76.8107 211.77 78.6849 213.103C78.4581 213.453 78.1467 213.739 77.7794 213.936C77.4121 214.133 77.0009 214.234 76.5841 214.229C76.5418 214.627 76.3879 215.004 76.1401 215.318C75.8923 215.632 75.5607 215.87 75.1836 216.004C74.4139 216.277 73.5553 216.084 74.0409 216.485C73.0133 216.583 71.9996 216.193 72.6651 216.946C71.128 216.734 68.0893 212.361 67.8415 210.698C67.8373 210.668 67.8237 210.641 67.8027 210.62C67.7818 210.599 67.7545 210.585 67.7251 210.581C67.707 210.578 67.6897 210.572 67.6739 210.563C66.6121 209.937 66.2849 208.525 66.3974 207.295C66.5126 206.055 66.9552 204.858 66.9878 203.614C67.0277 201.962 66.3435 200.262 66.8767 198.698C67.2623 197.712 67.9861 196.896 68.9187 196.395C69.8452 195.901 70.827 195.52 71.8437 195.258L71.7094 195.134C72.2616 194.174 73.5315 193.824 74.6217 194.021C75.6998 194.295 76.7108 194.786 77.5925 195.464L80.1274 197.152C80.9548 197.704 84.3445 200.241 84.9166 201.054C85.223 201.448 85.4166 201.917 85.4767 202.412C85.5367 202.906 85.4609 203.408 85.2573 203.863L84.3491 202.562L84.4681 202.599C84.8476 205.094 86.9864 209.504 86.0146 209.192C87.2305 210.35 86.4535 210.424 81.6022 212.792" fill="#090814"/>
<path d="M69.38 206.752C68.8464 205.691 68.6176 204.502 68.719 203.319C68.8204 202.136 69.248 201.004 69.9544 200.049C70.6608 199.094 71.6183 198.354 72.7205 197.91C73.8228 197.466 75.0267 197.337 76.1986 197.535C77.3705 197.734 78.4644 198.253 79.359 199.036C80.2536 199.818 80.9138 200.833 81.2663 201.967C81.6188 203.102 81.6497 204.311 81.3558 205.462C81.0618 206.613 80.4545 207.659 79.6011 208.486L83.2198 216.762L77.3657 215.305L74.1466 214.504C74.408 213.102 74.4799 211.671 74.3605 210.25C73.3058 210.124 72.2987 209.738 71.4295 209.128C70.5603 208.517 69.856 207.701 69.3799 206.752L69.38 206.752Z" fill="#ED9DA0"/>
<path d="M71.8957 195.235C70.8792 195.497 69.8974 195.879 68.971 196.372C68.0385 196.873 67.3149 197.69 66.9294 198.675C66.3952 200.238 67.0804 201.94 67.0377 203.591C67.007 204.837 66.5604 206.033 66.4474 207.272C66.3354 208.503 66.6623 209.914 67.7238 210.539C67.7395 210.549 67.7569 210.555 67.7749 210.557C67.8047 210.562 67.8323 210.576 67.8534 210.597C67.8745 210.619 67.888 210.646 67.8917 210.676C67.9976 211.446 68.3479 212.162 68.891 212.718C69.4341 213.275 70.1414 213.642 70.9089 213.767L69.5463 212.255C70.2267 213.008 75.0071 215.853 75.0071 215.853C75.0071 215.853 76.3214 214.89 76.4075 214.078C76.8243 214.083 77.2355 213.982 77.6027 213.785C77.97 213.588 78.2814 213.302 78.5081 212.952C76.6341 211.619 73.1818 207.26 71.3072 205.926C71.0453 205.763 70.8162 205.552 70.6314 205.305C70.5409 205.181 70.4864 205.033 70.4738 204.88C70.4612 204.726 70.4909 204.572 70.5597 204.434C70.5985 204.369 70.6509 204.313 70.7135 204.27C70.7761 204.228 70.8473 204.199 70.922 204.187C70.9967 204.175 71.0732 204.179 71.1461 204.2C71.219 204.221 71.2865 204.257 71.3439 204.306" fill="#090814"/>
<path d="M71.2671 204.314L74.863 197.36L81.9077 202.374L79.9952 198.085L73.3474 195.677L69.788 197.706L71.2671 204.314Z" fill="#090814"/>
<path d="M176.32 270.623L130.608 290.96C130.258 291.124 129.878 291.218 129.492 291.236C129.105 291.253 128.719 291.195 128.355 291.063C127.991 290.932 127.656 290.73 127.37 290.469C127.084 290.209 126.853 289.895 126.688 289.544C126.385 288.825 126.379 288.014 126.674 287.291C126.968 286.568 127.538 285.991 128.258 285.687L173.97 265.35C174.678 265.018 175.488 264.981 176.223 265.247C176.958 265.512 177.558 266.058 177.89 266.765C178.193 267.485 178.199 268.295 177.904 269.019C177.61 269.742 177.04 270.319 176.32 270.622L176.32 270.623Z" fill="#E6E6E6"/>
<path d="M97.4674 278.562C103.557 278.562 108.493 273.63 108.493 267.547C108.493 261.463 103.557 256.531 97.4674 256.531C91.3782 256.531 86.4419 261.463 86.4419 267.547C86.4419 273.63 91.3782 278.562 97.4674 278.562Z" fill="#E6E6E6"/>
<path d="M160.603 239.909L114.891 260.247C114.54 260.411 114.161 260.504 113.775 260.522C113.388 260.54 113.002 260.481 112.638 260.35C112.274 260.218 111.939 260.017 111.653 259.756C111.367 259.495 111.136 259.181 110.971 258.831C110.668 258.112 110.662 257.301 110.957 256.578C111.251 255.854 111.821 255.277 112.541 254.974L158.253 234.637C158.961 234.305 159.771 234.268 160.506 234.533C161.241 234.799 161.841 235.345 162.173 236.052C162.476 236.771 162.482 237.582 162.187 238.305C161.893 239.028 161.323 239.605 160.603 239.909L160.603 239.909Z" fill="#E6E6E6"/>
<path d="M163.888 246.842L118.175 267.179C117.825 267.343 117.445 267.437 117.059 267.455C116.672 267.472 116.286 267.414 115.922 267.282C115.558 267.151 115.223 266.949 114.937 266.688C114.652 266.428 114.42 266.113 114.255 265.763C113.952 265.044 113.946 264.233 114.241 263.51C114.535 262.787 115.105 262.21 115.825 261.906L161.537 241.569C162.245 241.237 163.055 241.2 163.79 241.466C164.525 241.731 165.125 242.277 165.457 242.984C165.761 243.704 165.766 244.514 165.472 245.237C165.177 245.961 164.607 246.538 163.887 246.841L163.888 246.842Z" fill="#E6E6E6"/>
<path d="M83.1254 253.103C89.2146 253.103 94.1509 248.171 94.1509 242.087C94.1509 236.004 89.2146 231.072 83.1254 231.072C77.0361 231.072 72.0999 236.004 72.0999 242.087C72.0999 248.171 77.0361 253.103 83.1254 253.103Z" fill="#E6E6E6"/>
<path d="M146.262 214.45L100.549 234.787C100.199 234.952 99.8194 235.045 99.4327 235.063C99.0461 235.081 98.6598 235.022 98.2958 234.891C97.9319 234.759 97.5974 234.557 97.3115 234.297C97.0256 234.036 96.7938 233.722 96.6295 233.372C96.3257 232.652 96.3204 231.842 96.6148 231.118C96.9091 230.395 97.479 229.818 98.199 229.515L143.911 209.177C144.619 208.846 145.429 208.809 146.165 209.074C146.9 209.339 147.499 209.886 147.831 210.593C148.135 211.312 148.14 212.123 147.846 212.846C147.551 213.569 146.981 214.146 146.261 214.45L146.262 214.45Z" fill="#E6E6E6"/>
<path d="M149.546 221.382L103.833 241.719C103.483 241.883 103.104 241.977 102.717 241.995C102.33 242.013 101.944 241.954 101.58 241.823C101.216 241.691 100.882 241.489 100.596 241.229C100.31 240.968 100.078 240.654 99.9137 240.304C99.6099 239.584 99.6046 238.774 99.8989 238.05C100.193 237.327 100.763 236.75 101.483 236.447L147.196 216.109C147.903 215.778 148.714 215.74 149.449 216.006C150.184 216.271 150.783 216.817 151.115 217.524C151.419 218.244 151.424 219.054 151.13 219.778C150.835 220.501 150.266 221.078 149.546 221.382L149.546 221.382Z" fill="#E6E6E6"/>
</g>
<defs>
<clipPath id="clip0_20_411">
<rect width="231" height="375" fill="white"/>
</clipPath>
</defs>
</svg>
