<svg width="455" height="507" viewBox="0 0 455 507" fill="none" xmlns="http://www.w3.org/2000/svg">
<g clip-path="url(#clip0_125_800)">
<path d="M433.595 477.878C430.759 478.873 427.714 479.122 424.753 478.602C421.792 478.081 419.016 476.808 416.691 474.905C410.77 469.944 408.912 461.771 407.403 454.203L402.936 431.818L412.289 438.247C419.016 442.871 425.893 447.643 430.551 454.34C435.208 461.038 437.241 470.18 433.499 477.426" fill="#E6E6E6"/>
<path d="M432.796 504.979C433.743 498.095 434.716 491.123 434.052 484.165C433.462 477.986 431.574 471.951 427.729 467.002C425.689 464.38 423.205 462.134 420.391 460.364C419.657 459.903 418.982 461.063 419.713 461.523C424.582 464.595 428.348 469.131 430.468 474.477C432.809 480.422 433.185 486.903 432.778 493.219C432.534 497.038 432.017 500.831 431.496 504.622C431.454 504.793 431.479 504.974 431.566 505.128C431.654 505.281 431.797 505.396 431.966 505.448C432.138 505.494 432.321 505.471 432.476 505.383C432.631 505.295 432.745 505.15 432.793 504.979L432.796 504.979Z" fill="#F2F2F2"/>
<path d="M398.897 390.64H7.58765V0H398.897V390.64Z" fill="white"/>
<path d="M398.897 390.64H7.58765V0H398.897V390.64ZM13.3692 384.869H393.115V5.77168H13.3692V384.869Z" fill="#E5E5E5"/>
<path d="M329.575 61.116H160.122V66.3855H329.575V61.116Z" fill="#E5E5E5"/>
<path d="M329.575 74.8167H160.122V80.0862H329.575V74.8167Z" fill="#E5E5E5"/>
<path d="M329.575 88.5173H160.122V93.7869H329.575V88.5173Z" fill="#E5E5E5"/>
<path d="M329.575 178.762H160.122V184.031H329.575V178.762Z" fill="#E5E5E5"/>
<path d="M329.575 192.462H160.122V197.732H329.575V192.462Z" fill="#E5E5E5"/>
<path d="M329.575 206.163H160.122V211.433H329.575V206.163Z" fill="#E5E5E5"/>
<path d="M329.575 296.407H160.122V301.677H329.575V296.407Z" fill="#E5E5E5"/>
<path d="M329.575 310.108H160.122V315.378H329.575V310.108Z" fill="#E5E5E5"/>
<path d="M329.575 323.809H160.122V329.079H329.575V323.809Z" fill="#E5E5E5"/>
<path d="M92.2856 103.101C89.3908 101.578 86.3692 100.308 83.2546 99.3065L82.8575 94.9208L66.7512 93.1885L64.7042 98.7941L58.924 100.96C58.7172 101.038 58.5203 101.14 58.3374 101.265H58.3312C58.0086 101.482 57.7339 101.763 57.5238 102.09C57.3137 102.418 57.1726 102.784 57.1091 103.168C57.0474 103.549 57.062 103.939 57.1521 104.314L57.4576 105.565C57.8974 105.827 58.3497 106.077 58.8017 106.315L59.089 106.461C59.7489 106.803 60.4211 107.126 61.1115 107.425C61.252 107.486 61.4048 107.547 61.5453 107.608C61.5575 107.614 61.5635 107.614 61.5757 107.62C61.8997 107.755 62.2234 107.883 62.5534 108.005C63.6373 108.418 64.7428 108.772 65.8651 109.066C68.7294 109.828 71.6812 110.214 74.6455 110.213C75.727 110.213 76.7963 110.164 77.8533 110.06C80.2686 109.838 82.653 109.357 84.9657 108.627C84.9716 108.627 84.9779 108.621 84.9839 108.621C86.4447 108.156 87.8719 107.592 89.255 106.931C89.261 106.925 89.2732 106.925 89.2795 106.919C89.591 106.773 89.8905 106.614 90.196 106.461L90.3425 106.388C90.5868 106.26 90.8315 106.132 91.0758 105.998C91.6868 105.662 92.2856 105.309 92.8781 104.93C93.0431 104.833 93.2022 104.729 93.3671 104.619C93.5993 104.467 93.8314 104.308 94.0575 104.144C93.4892 103.778 92.8967 103.43 92.2856 103.101Z" fill="#B18CD8"/>
<path d="M62.0585 105.803L61.0504 101.259H58.4168C58.3903 101.259 58.3638 101.261 58.3375 101.265H58.3312C57.3848 101.345 56.4734 101.659 55.6795 102.18C55.1411 102.523 54.6623 102.951 54.2621 103.448C55.0441 104.04 55.8567 104.589 56.6939 105.114L56.7306 105.132C56.9687 105.278 57.2133 105.425 57.4577 105.565C57.8975 105.827 58.3498 106.077 58.8018 106.315L59.0891 106.462C59.749 106.803 60.4212 107.126 61.1116 107.425C61.2521 107.486 61.4049 107.547 61.5454 107.608C61.5576 107.614 61.5636 107.614 61.5758 107.621C61.8998 107.755 62.2235 107.883 62.5535 108.005L62.0585 105.803Z" fill="#B18CD8"/>
<path d="M74.1723 90.4158C80.5788 90.4158 85.7722 85.2312 85.7722 78.8357C85.7722 72.4402 80.5788 67.2556 74.1723 67.2556C67.7659 67.2556 62.5724 72.4402 62.5724 78.8357C62.5724 85.2312 67.7659 90.4158 74.1723 90.4158Z" fill="#FFB8B8"/>
<path d="M66.3843 73.1953C67.5851 74.6139 69.6172 75.0142 71.4918 75.1784C75.8746 75.4201 80.2698 75.0618 84.5553 74.1135C84.8208 76.6828 84.0968 79.4531 85.6127 81.5666C86.3233 79.0079 86.7366 76.376 86.8442 73.7229C86.9574 72.5846 86.8085 71.4356 86.4089 70.3635C86.1953 69.8262 85.835 69.3595 85.3689 69.0165C84.9028 68.6735 84.3497 68.4679 83.7724 68.423C84.6366 67.7685 85.6489 67.3365 86.72 67.1651L83.0367 65.3173L83.9826 64.3479L77.3143 63.9405L79.2457 62.7156C76.3388 62.3169 73.398 62.2242 70.4717 62.4391C69.1042 62.4397 67.7627 62.812 66.5911 63.516C65.4901 64.3019 64.8539 65.8641 65.5374 67.0181C64.6817 67.1583 63.876 67.5144 63.1967 68.0525C62.5174 68.5905 61.9869 69.2929 61.6556 70.0929C61.2365 71.3645 61.1354 72.7191 61.3609 74.0386C61.6121 76.1558 62.105 78.2374 62.8299 80.2428L66.3843 73.1953Z" fill="#2F2E41"/>
<path d="M106.791 66.2827C105.164 61.6151 102.536 57.3581 99.0908 53.8085C95.6458 50.2589 91.4668 47.5022 86.845 45.7307C82.2232 43.9591 77.2699 43.2154 72.3306 43.5512C67.3913 43.8871 62.5848 45.2945 58.2463 47.6753C53.9078 50.0561 50.1418 53.353 47.2108 57.3361C44.2798 61.3192 42.2544 65.8926 41.2759 70.7374C40.2974 75.5822 40.3892 80.5818 41.5451 85.3875C42.701 90.1932 44.893 94.6894 47.9684 98.5625C48.2739 98.9468 48.5916 99.3311 48.9156 99.7032C48.9401 99.7276 48.9583 99.752 48.9828 99.7764C49.7792 100.692 50.6257 101.564 51.5184 102.387C51.7508 102.601 51.9952 102.82 52.2395 103.028C52.7038 103.442 53.1805 103.839 53.6755 104.217C53.8709 104.369 54.0603 104.522 54.262 104.668C55.044 105.26 55.8567 105.809 56.6939 106.334L56.7306 106.352C56.9686 106.498 57.2133 106.645 57.4577 106.785C57.8975 107.047 58.3497 107.297 58.8017 107.535L59.089 107.682C59.749 108.023 60.4212 108.346 61.1115 108.645C61.2521 108.706 61.4048 108.767 61.5453 108.828C61.5576 108.834 61.5635 108.834 61.5758 108.841C61.8998 108.975 62.2235 109.103 62.5535 109.225C63.6373 109.638 64.7428 109.992 65.8651 110.286C68.7295 111.048 71.6812 111.434 74.6455 111.433C75.727 111.433 76.7963 111.384 77.8534 111.28C80.2687 111.058 82.6531 110.577 84.9657 109.847C84.9717 109.847 84.9779 109.841 84.9839 109.841C86.4448 109.376 87.8719 108.812 89.2551 108.151C89.261 108.145 89.2733 108.145 89.2795 108.139C89.591 107.993 89.8905 107.834 90.1961 107.682L90.3425 107.608C90.5869 107.48 90.8315 107.352 91.0759 107.218C91.6869 106.883 92.2857 106.529 92.8782 106.151C93.0432 106.053 93.2022 105.949 93.3672 105.84C93.5993 105.687 93.8314 105.528 94.0576 105.364C94.3568 105.156 94.6564 104.943 94.9496 104.723C95.0412 104.656 95.1391 104.589 95.2307 104.516C100.955 100.178 105.157 94.1427 107.234 87.2744C109.31 80.4061 109.155 73.0577 106.791 66.2827ZM94.1065 103.034C93.9048 103.192 93.6972 103.345 93.4892 103.485C93.2875 103.638 93.0862 103.784 92.8782 103.918C92.701 104.046 92.5238 104.168 92.3406 104.284L92.2857 104.321C92.1511 104.412 92.0169 104.498 91.8823 104.583C91.3751 104.9 90.8619 105.205 90.3425 105.498L90.1776 105.589C89.9454 105.718 89.7133 105.84 89.4812 105.962C89.4505 105.98 89.4138 105.992 89.3834 106.01L89.3467 106.029C89.0534 106.181 88.7539 106.327 88.4546 106.468C87.2993 107.023 86.1094 107.504 84.8923 107.907C84.7333 107.962 84.5746 108.017 84.4159 108.066C82.2269 108.761 79.9695 109.219 77.6824 109.432C76.6803 109.524 75.6659 109.573 74.6455 109.573C71.8418 109.578 69.0496 109.213 66.3419 108.487C64.9523 108.125 63.5903 107.664 62.2665 107.108C62.199 107.078 62.1257 107.053 62.0585 107.023C61.9854 106.992 61.918 106.968 61.8509 106.937C61.7775 106.907 61.7103 106.876 61.6369 106.84C61.0626 106.59 60.4943 106.315 59.9384 106.029L59.6696 105.888C58.9912 105.535 58.3253 105.156 57.6775 104.754C57.4881 104.638 57.2927 104.516 57.1092 104.388C57.0606 104.357 57.0176 104.327 56.9687 104.296C56.5349 104.01 56.1011 103.711 55.6795 103.4C55.3925 103.186 55.1052 102.973 54.8241 102.753C54.3536 102.399 53.9013 102.021 53.4616 101.631C53.2295 101.435 53.0033 101.222 52.7835 101.021C51.9171 100.222 51.097 99.375 50.3271 98.4833C50.0705 98.1904 49.8199 97.8977 49.5815 97.5927C49.5274 97.5323 49.4764 97.4692 49.4288 97.4036C45.4588 92.4025 43.0709 86.3343 42.5696 79.9729C42.0684 73.6116 43.4764 67.2453 46.6142 61.686C49.7519 56.1267 54.4773 51.6264 60.1875 48.759C65.8978 45.8915 72.3341 44.787 78.6758 45.5861C85.0174 46.3853 90.9769 49.0519 95.7942 53.246C100.612 57.44 104.068 62.9714 105.724 69.1347C107.379 75.298 107.159 81.8139 105.089 87.8514C103.02 93.8889 99.1969 99.1743 94.1065 103.034Z" fill="#B18CD8"/>
<path d="M106.791 183.928C105.164 179.261 102.536 175.004 99.091 171.454C95.6461 167.905 91.467 165.148 86.8452 163.376C82.2235 161.605 77.2702 160.861 72.3309 161.197C67.3916 161.533 62.5851 162.94 58.2466 165.321C53.9081 167.702 50.1421 170.999 47.2111 174.982C44.2801 178.965 42.2547 183.538 41.2762 188.383C40.2977 193.228 40.3895 198.228 41.5454 203.033C42.7013 207.839 44.8933 212.335 47.9687 216.208C48.2742 216.593 48.5919 216.977 48.9156 217.349C48.9401 217.373 48.9583 217.398 48.9827 217.422C49.7794 218.338 50.626 219.21 51.5187 220.033C51.7508 220.246 51.9952 220.466 52.2395 220.673C52.704 221.088 53.1805 221.485 53.6755 221.863C54.6419 222.623 55.6495 223.33 56.6939 223.979L56.7305 223.998C57.4087 224.418 58.0991 224.809 58.802 225.181L59.089 225.327C59.749 225.669 60.4211 225.992 61.1115 226.291C61.252 226.352 61.4048 226.413 61.5453 226.474C61.5575 226.48 61.5638 226.48 61.576 226.486C62.9711 227.065 64.4042 227.548 65.8654 227.932C68.7296 228.694 71.6813 229.08 74.6455 229.079C75.727 229.079 76.7963 229.03 77.8533 228.926C80.2686 228.704 82.6531 228.223 84.9657 227.493C84.9719 227.493 84.9779 227.487 84.9839 227.487C86.4448 227.022 87.8719 226.458 89.255 225.797C89.261 225.791 89.2735 225.791 89.2795 225.785C89.591 225.638 89.8905 225.48 90.196 225.327L90.3428 225.254C90.5871 225.126 90.8315 224.998 91.0758 224.864C91.6869 224.528 92.2856 224.174 92.8785 223.796C93.0434 223.699 93.2022 223.595 93.3671 223.485C93.9048 223.131 94.4364 222.753 94.9496 222.369C95.0415 222.302 95.1391 222.235 95.2309 222.162C100.955 217.824 105.157 211.788 107.234 204.92C109.31 198.052 109.155 190.703 106.791 183.928Z" fill="white"/>
<path d="M85.8784 209.105C88.6958 209.105 90.9797 206.825 90.9797 204.012C90.9797 201.2 88.6958 198.919 85.8784 198.919C83.0609 198.919 80.777 201.2 80.777 204.012C80.777 206.825 83.0609 209.105 85.8784 209.105Z" fill="#2F2E41"/>
<path d="M87.2996 199.06C88.1826 199.06 89.0504 199.288 89.8183 199.724C90.5861 200.159 91.2277 200.785 91.6803 201.542C92.1329 202.299 92.3809 203.16 92.4003 204.041C92.4196 204.923 92.2095 205.794 91.7906 206.57C92.2327 206.017 92.5548 205.379 92.7362 204.695C92.9176 204.012 92.9544 203.298 92.8442 202.6C92.7341 201.901 92.4793 201.233 92.0963 200.638C91.7133 200.044 91.2104 199.535 90.6196 199.145C90.0288 198.755 89.3631 198.492 88.6649 198.373C87.9667 198.254 87.2513 198.281 86.5643 198.453C85.8773 198.625 85.2337 198.939 84.6746 199.373C84.1156 199.807 83.6532 200.353 83.317 200.975C83.7939 200.377 84.3998 199.895 85.0894 199.563C85.7791 199.231 86.5342 199.059 87.2996 199.06Z" fill="#2F2E41"/>
<path d="M76.3453 204.001C84.6218 204.001 91.3311 197.303 91.3311 189.041C91.3311 180.778 84.6218 174.081 76.3453 174.081C68.0689 174.081 61.3595 180.778 61.3595 189.041C61.3595 197.303 68.0689 204.001 76.3453 204.001Z" fill="#2F2E41"/>
<path d="M64.5838 179.759C67.166 176.86 70.7754 175.076 74.6504 174.783C78.5253 174.49 82.3625 175.712 85.3523 178.19C85.2301 178.074 85.1079 177.956 84.9814 177.844C82.0211 175.196 78.1285 173.831 74.16 174.049C70.1915 174.266 66.4722 176.049 63.8202 179.004C61.1682 181.959 59.8008 185.845 60.0188 189.807C60.2368 193.769 62.0224 197.482 64.9827 200.129C65.0112 200.155 65.0397 200.18 65.0683 200.205C65.1954 200.318 65.3262 200.425 65.4563 200.533C62.6409 197.859 60.9762 194.198 60.8135 190.322C60.6508 186.446 62.0023 182.658 64.5838 179.759Z" fill="#2F2E41"/>
<path d="M76.2182 203.874C81.5487 203.874 85.8699 199.56 85.8699 194.239C85.8699 188.918 81.5487 184.604 76.2182 184.604C70.8878 184.604 66.5666 188.918 66.5666 194.239C66.5666 199.56 70.8878 203.874 76.2182 203.874Z" fill="#A0616A"/>
<path d="M93.4895 219.344V222.576C92.8966 222.955 92.2979 223.308 91.6868 223.644C91.4425 223.778 91.1982 223.906 90.9538 224.034L90.807 224.107C90.5015 224.26 90.202 224.419 89.8905 224.565C89.8845 224.571 89.872 224.571 89.866 224.577C88.4829 225.238 87.0558 225.802 85.5949 226.267C85.5889 226.267 85.5829 226.273 85.5767 226.273C83.2641 227.003 80.8797 227.484 78.4644 227.706C77.4073 227.81 76.338 227.859 75.2565 227.859C72.2923 227.86 69.3406 227.474 66.4764 226.712C65.0152 226.329 63.5821 225.846 62.1871 225.266C62.1748 225.26 62.1686 225.26 62.1563 225.254C62.0158 225.193 61.863 225.132 61.7225 225.071C61.0321 224.772 60.36 224.449 59.7 224.108L59.413 223.961C58.7101 223.589 58.0197 223.199 57.3416 222.778L57.3049 222.759C56.2605 222.11 55.2529 221.403 54.2865 220.643C53.7915 220.265 53.3151 219.868 52.8505 219.453C52.6062 219.246 52.3618 219.026 52.1297 218.813C51.237 217.99 50.3904 217.118 49.5938 216.202C49.6994 215.567 49.8547 214.941 50.0583 214.33L50.0642 214.323C50.1008 214.219 50.1437 214.117 50.1925 214.019C50.2262 213.931 50.265 213.845 50.3086 213.762C51.4024 211.719 53.3822 211.213 55.8385 211.103C57.2255 211.042 58.759 211.109 60.3785 211.091C61.2338 211.085 62.1196 211.054 63.0057 210.975C68.5965 210.468 67.5824 207.175 67.8327 205.4C68.0833 203.679 69.6354 205.168 69.7392 205.265L69.7451 205.272C72.909 206.75 76.4093 207.362 79.8881 207.047C80.4869 206.973 81.0857 206.931 81.6845 206.912C83.2609 206.894 82.9187 207.345 82.3751 207.718C82.1112 207.891 81.8356 208.046 81.5502 208.181C81.5502 208.181 81.2996 209.706 81.043 211.987C80.7987 214.171 84.9902 215.196 85.3383 215.275C85.3455 215.28 85.3542 215.282 85.3628 215.281C86.8935 214.885 88.5051 214.927 90.0129 215.403H90.0188C90.8803 215.719 91.649 216.245 92.2551 216.934C92.8612 217.622 93.2855 218.45 93.4895 219.344Z" fill="#DADADA"/>
<path d="M62.2479 223.266C62.2479 223.717 62.236 224.15 62.2175 224.559C62.2115 224.803 62.1993 225.041 62.1871 225.266C62.1749 225.26 62.1686 225.26 62.1563 225.254C62.0158 225.193 61.8631 225.132 61.7225 225.071C61.0322 224.772 60.36 224.449 59.7 224.107L59.413 223.961C58.7101 223.589 58.0198 223.199 57.3416 222.778C57.3598 222.564 57.3905 222.351 57.4209 222.137C57.4881 221.668 57.5433 221.192 57.58 220.722C57.8202 217.422 57.2211 214.116 55.8385 211.109V211.103C55.7162 210.859 55.6431 210.725 55.6431 210.725C55.6431 210.725 57.4209 209.2 59.9566 210.725C60.1186 210.82 60.2616 210.944 60.3784 211.091C61.906 212.89 62.3213 218.941 62.2479 223.266Z" fill="#2F2E41"/>
<path d="M89.9943 222.436C89.9699 223.119 89.9332 223.833 89.8905 224.559V224.565C89.8845 224.571 89.872 224.571 89.866 224.577C88.4829 225.238 87.0558 225.802 85.5949 226.267C85.5889 226.267 85.5829 226.273 85.5767 226.273L85.5095 224.559L85.5033 224.333L85.1796 215.989C85.1709 215.8 85.2007 215.611 85.2671 215.434C85.3335 215.257 85.4351 215.095 85.5659 214.958C85.6966 214.821 85.8538 214.712 86.0279 214.638C86.202 214.563 86.3894 214.525 86.5788 214.525H89.6766C89.8293 214.525 89.9394 214.836 90.0128 215.397V215.403C90.1631 217.745 90.1569 220.095 89.9943 222.436Z" fill="#2F2E41"/>
<path d="M67.9634 182.195V191.833H70.1985L73.0428 188.79L72.6621 191.833H82.5423L81.9313 188.79L83.1533 191.833H84.7285V182.195H67.9634Z" fill="#2F2E41"/>
<path d="M66.4395 193.605C66.8603 193.605 67.2014 192.981 67.2014 192.211C67.2014 191.441 66.8603 190.816 66.4395 190.816C66.0187 190.816 65.6776 191.441 65.6776 192.211C65.6776 192.981 66.0187 193.605 66.4395 193.605Z" fill="#A0616A"/>
<path d="M85.9975 193.605C86.4183 193.605 86.7595 192.981 86.7595 192.211C86.7595 191.441 86.4183 190.816 85.9975 190.816C85.5767 190.816 85.2356 191.441 85.2356 192.211C85.2356 192.981 85.5767 193.605 85.9975 193.605Z" fill="#A0616A"/>
<path d="M95.5606 221.149C95.0474 221.533 94.5158 221.911 93.9782 222.265C93.8132 222.375 93.6544 222.479 93.4894 222.576C92.8966 222.955 92.2978 223.308 91.6868 223.644C91.4425 223.778 91.1981 223.906 90.9538 224.034V217.312C90.9538 217.312 91.9312 218.093 93.4894 219.392C93.6848 219.557 93.8865 219.728 94.1004 219.911C94.5525 220.289 95.0415 220.704 95.5606 221.149Z" fill="#DADADA"/>
<path d="M106.791 183.928C105.164 179.261 102.536 175.004 99.091 171.454C95.6461 167.905 91.467 165.148 86.8452 163.376C82.2235 161.605 77.2702 160.861 72.3309 161.197C67.3916 161.533 62.5851 162.94 58.2466 165.321C53.9081 167.702 50.1421 170.999 47.2111 174.982C44.2801 178.965 42.2547 183.538 41.2762 188.383C40.2977 193.228 40.3895 198.228 41.5454 203.033C42.7013 207.839 44.8933 212.335 47.9687 216.208C48.2742 216.593 48.5919 216.977 48.9156 217.349C48.9401 217.373 48.9583 217.398 48.9827 217.422C49.7794 218.338 50.626 219.21 51.5187 220.033C51.7508 220.246 51.9952 220.466 52.2395 220.673C52.704 221.088 53.1805 221.485 53.6755 221.863C54.6419 222.623 55.6495 223.33 56.6939 223.979L56.7305 223.998C57.4087 224.418 58.0991 224.809 58.802 225.181L59.089 225.327C59.749 225.669 60.4211 225.992 61.1115 226.291C61.252 226.352 61.4048 226.413 61.5453 226.474C61.5575 226.48 61.5638 226.48 61.576 226.486C62.9711 227.065 64.4042 227.548 65.8654 227.932C68.7296 228.694 71.6813 229.08 74.6455 229.079C75.727 229.079 76.7963 229.03 77.8533 228.926C80.2686 228.704 82.6531 228.223 84.9657 227.493C84.9719 227.493 84.9779 227.487 84.9839 227.487C86.4448 227.022 87.8719 226.458 89.255 225.797C89.261 225.791 89.2735 225.791 89.2795 225.785C89.591 225.638 89.8905 225.48 90.196 225.327L90.3428 225.254C90.5871 225.126 90.8315 224.998 91.0758 224.864C91.6869 224.528 92.2856 224.174 92.8785 223.796C93.0434 223.699 93.2022 223.595 93.3671 223.485C93.9048 223.131 94.4364 222.753 94.9496 222.369C95.0415 222.302 95.1391 222.235 95.2309 222.162C100.955 217.824 105.157 211.788 107.234 204.92C109.31 198.052 109.155 190.703 106.791 183.928ZM94.1065 220.679C93.9048 220.838 93.6971 220.99 93.4895 221.131C93.2878 221.283 93.0861 221.43 92.8785 221.564C92.7013 221.692 92.5241 221.814 92.3406 221.93C92.1878 222.033 92.0351 222.131 91.8823 222.229C91.3754 222.546 90.8622 222.851 90.3428 223.144L90.1775 223.235C89.9454 223.363 89.7133 223.485 89.4812 223.607C89.4504 223.625 89.4137 223.638 89.3833 223.656L89.3467 223.674C89.0534 223.827 88.7541 223.973 88.4546 224.113C87.2992 224.669 86.1094 225.15 84.8923 225.553C84.7336 225.608 84.5746 225.663 84.4158 225.712C82.2269 226.407 79.9694 226.865 77.6824 227.078C76.6802 227.169 75.6658 227.218 74.6455 227.218C71.8417 227.224 69.0496 226.859 66.3419 226.132C64.9522 225.77 63.5903 225.31 62.2664 224.754C62.1259 224.699 61.9854 224.638 61.8508 224.583C61.7777 224.553 61.7103 224.522 61.6369 224.486C61.0626 224.235 60.4945 223.961 59.9384 223.674L59.6696 223.534C58.9915 223.18 58.3252 222.802 57.6775 222.399C57.4394 222.253 57.2011 222.101 56.9689 221.942C56.2356 221.46 55.5208 220.942 54.8241 220.399C54.3536 220.045 53.9016 219.667 53.4616 219.276C53.2294 219.081 53.0033 218.868 52.7834 218.666C51.9171 217.868 51.097 217.021 50.3271 216.129C50.0705 215.836 49.8199 215.543 49.5815 215.238C49.5273 215.178 49.4763 215.115 49.4288 215.049C45.4588 210.048 43.0709 203.98 42.5696 197.619C42.0683 191.257 43.4764 184.891 46.6141 179.332C49.7519 173.772 54.4773 169.272 60.1875 166.405C65.8977 163.537 72.3341 162.433 78.6757 163.232C85.0174 164.031 90.9768 166.698 95.7942 170.892C100.612 175.086 104.068 180.617 105.724 186.78C107.379 192.944 107.158 199.46 105.089 205.497C103.02 211.535 99.1968 216.82 94.1065 220.679Z" fill="#B18CD8"/>
<path d="M74.8378 328.016C82.2033 328.016 88.1742 322.056 88.1742 314.703C88.1742 307.35 82.2033 301.389 74.8378 301.389C67.4723 301.389 61.5014 307.35 61.5014 314.703C61.5014 322.056 67.4723 328.016 74.8378 328.016Z" fill="#2F2E41"/>
<path d="M64.428 307.524C66.5831 305.373 67.0199 302.321 65.4036 300.707C63.7872 299.094 60.7299 299.53 58.5748 301.681C56.4197 303.833 55.9829 306.885 57.5992 308.498C59.2156 310.112 62.2729 309.676 64.428 307.524Z" fill="#2F2E41"/>
<path d="M88.7378 303.297C89.6357 301.198 88.0915 298.528 85.2888 297.333C82.486 296.138 79.4859 296.87 78.588 298.968C77.6901 301.067 79.2343 303.737 82.037 304.932C84.8398 306.127 87.8399 305.395 88.7378 303.297Z" fill="#2F2E41"/>
<path d="M90.7901 340.528L89.2188 338.059C88.552 336.572 87.3222 335.41 85.7987 334.826C84.2751 334.243 82.582 334.286 81.0902 334.946C79.5983 335.606 78.4294 336.83 77.8394 338.349C77.2494 339.868 77.2864 341.558 77.9423 343.05L78.3891 344.649L78.8976 346.464C80.9562 346.204 82.9874 345.762 84.967 345.141C84.9729 345.14 84.9783 345.138 84.9824 345.133C86.4457 344.671 87.8743 344.106 89.2575 343.442C89.265 343.434 89.2725 343.434 89.2804 343.426C89.5885 343.28 89.8889 343.127 90.197 342.973C90.2473 342.95 90.2962 342.924 90.3433 342.896C90.5896 342.773 90.8364 342.642 91.0752 342.511C91.3215 342.381 91.5602 342.242 91.7913 342.096L90.7901 340.528Z" fill="#CACACA"/>
<path d="M75.2607 329.18C81.5117 329.18 86.5791 324.121 86.5791 317.881C86.5791 311.641 81.5117 306.582 75.2607 306.582C69.0097 306.582 63.9423 311.641 63.9423 317.881C63.9423 324.121 69.0097 329.18 75.2607 329.18Z" fill="#FFB6B6"/>
<path d="M91.6066 340.043C90.3581 337.971 88.8084 336.095 87.0081 334.476C85.775 333.376 84.1791 332.769 82.5254 332.769H66.5813C65.6625 332.769 64.7535 332.957 63.9103 333.321C63.0671 333.685 62.3077 334.218 61.6789 334.887C61.0502 335.555 60.5655 336.346 60.2548 337.209C59.9441 338.072 59.814 338.99 59.8725 339.905C59.9073 340.421 60.0004 340.932 60.15 341.427C60.2637 341.786 60.4053 342.136 60.5735 342.473L61.3591 344.042C61.4208 344.065 61.4825 344.096 61.5438 344.119C61.5592 344.126 61.5671 344.126 61.5746 344.134C61.8981 344.265 62.2219 344.395 62.5528 344.518C63.6367 344.932 64.7425 345.286 65.8651 345.58C67.6722 346.064 69.5169 346.396 71.3798 346.572C72.4659 346.671 73.5521 346.725 74.6458 346.725C75.7319 346.725 76.7947 346.671 77.8576 346.572C78.2044 346.541 78.5507 346.502 78.8975 346.464C80.9561 346.204 82.9873 345.762 84.9669 345.141C84.9728 345.141 84.9782 345.138 84.9823 345.134C86.4456 344.671 87.8742 344.106 89.2574 343.442C89.2649 343.434 89.2724 343.434 89.2803 343.427C89.5884 343.28 89.8888 343.127 90.1969 342.973C90.2472 342.95 90.2961 342.925 90.3432 342.896C90.5895 342.773 90.8362 342.642 91.075 342.512C91.3214 342.381 91.5601 342.242 91.7911 342.096C92.0378 341.966 92.2688 341.82 92.5076 341.673C92.2151 341.097 91.9146 340.559 91.6066 340.043Z" fill="#CACACA"/>
<path d="M69.4697 334.83C67.9942 334.141 66.3055 334.063 64.7727 334.614C63.2399 335.164 61.9878 336.298 61.29 337.767L59.8725 339.905L59.1948 340.928L58.1628 342.481C58.3783 342.596 58.5863 342.712 58.8021 342.827L59.0868 342.973C59.7495 343.311 60.4194 343.634 61.1129 343.934C61.1896 343.973 61.2746 344.003 61.3592 344.042C61.4209 344.065 61.4826 344.096 61.5439 344.119C61.5593 344.126 61.5672 344.126 61.5747 344.134C61.8981 344.265 62.2219 344.395 62.5529 344.518C63.6368 344.932 64.7425 345.286 65.8651 345.58C67.6723 346.064 69.517 346.396 71.3798 346.571L71.9191 344.749L72.443 343.011C73.1335 341.533 73.2083 339.841 72.6509 338.307C72.0934 336.773 70.9494 335.523 69.4697 334.83Z" fill="#CACACA"/>
<path d="M63.3677 310.774C65.9542 312.554 69.0241 313.501 72.1653 313.488C71.0448 314.264 69.7692 314.788 68.4263 315.024C72.6028 315.918 76.9193 315.942 81.1055 315.095C82.0361 314.946 82.9339 314.638 83.7598 314.185C84.1713 313.955 84.5299 313.642 84.8121 313.265C85.0944 312.888 85.294 312.456 85.3981 311.997C85.6763 310.411 84.438 308.97 83.1511 307.998C81.1808 306.534 78.909 305.525 76.5002 305.044C74.0913 304.564 71.6056 304.624 69.2228 305.22C67.6351 305.539 66.1904 306.354 65.0977 307.547C64.5689 308.154 64.2497 308.915 64.1872 309.717C64.1247 310.519 64.3222 311.32 64.7506 312.002L63.3677 310.774Z" fill="#2F2E41"/>
<path d="M106.795 301.574C105.168 296.906 102.541 292.648 99.0957 289.098C95.6508 285.548 91.4716 282.791 86.8496 281.019C82.2276 279.247 77.274 278.503 72.3343 278.839C67.3946 279.174 62.5878 280.582 58.2489 282.963C53.9101 285.344 50.1438 288.641 47.2127 292.624C44.2816 296.608 42.2562 301.182 41.2778 306.027C40.2994 310.872 40.3915 315.872 41.5477 320.678C42.704 325.484 44.8965 329.98 47.9724 333.853C48.2726 334.238 48.5964 334.622 48.9199 334.991C48.9384 335.019 48.959 335.044 48.9815 335.068C49.7792 335.984 50.6278 336.854 51.5232 337.675C51.7541 337.89 51.9929 338.113 52.2396 338.321C52.7015 338.736 53.1791 339.128 53.6797 339.505C53.8723 339.659 54.0648 339.812 54.2653 339.959C55.043 340.551 55.8595 341.097 56.6915 341.627C56.7057 341.627 56.7194 341.633 56.7298 341.642C56.9686 341.789 57.2154 341.935 57.4617 342.073C57.6926 342.212 57.9315 342.35 58.1627 342.481C58.3783 342.596 58.5862 342.711 58.8021 342.827L59.0868 342.973C59.7495 343.311 60.4193 343.634 61.1128 343.934C61.1896 343.972 61.2746 344.003 61.3592 344.042C61.4208 344.065 61.4825 344.095 61.5438 344.118C61.5592 344.126 61.5671 344.126 61.5746 344.134C61.8981 344.265 62.2219 344.395 62.5529 344.518C63.6367 344.932 64.7425 345.286 65.8651 345.579C67.6722 346.064 69.517 346.396 71.3798 346.571C72.466 346.671 73.5521 346.725 74.6458 346.725C75.7319 346.725 76.7948 346.671 77.8576 346.571C78.2044 346.541 78.5508 346.502 78.8975 346.464C80.9561 346.204 82.9873 345.762 84.9669 345.141C84.9728 345.14 84.9782 345.138 84.9823 345.133C86.4456 344.671 87.8742 344.106 89.2574 343.442C89.2649 343.434 89.2724 343.434 89.2804 343.426C89.5884 343.28 89.8888 343.127 90.1969 342.973C90.2472 342.95 90.2961 342.924 90.3432 342.896C90.5895 342.773 90.8363 342.642 91.0751 342.511C91.3214 342.381 91.5601 342.242 91.7912 342.096C92.0379 341.965 92.2688 341.819 92.5076 341.673C92.631 341.596 92.7542 341.52 92.8773 341.443C93.047 341.343 93.2008 341.243 93.3704 341.127C93.6013 340.981 93.8326 340.82 94.0556 340.658C94.3561 340.451 94.6566 340.235 94.9492 340.012C95.0479 339.948 95.143 339.879 95.2343 339.805C100.954 335.464 105.153 329.429 107.229 322.562C109.306 315.695 109.154 308.349 106.795 301.574ZM94.1098 338.321C93.9094 338.482 93.7014 338.636 93.4938 338.774C93.2854 338.928 93.0853 339.074 92.8774 339.213C92.7002 339.336 92.5231 339.459 92.3384 339.574C92.3217 339.589 92.3035 339.602 92.2843 339.613C92.1534 339.705 92.0146 339.789 91.8837 339.874C91.7912 339.928 91.6991 339.989 91.6066 340.043C91.3369 340.212 91.0672 340.374 90.7901 340.528C90.6438 340.62 90.4896 340.704 90.3433 340.789C90.2895 340.82 90.2353 340.851 90.1815 340.881C89.9427 341.012 89.7118 341.127 89.4805 341.25C89.45 341.273 89.4113 341.281 89.3883 341.304C89.374 341.305 89.3602 341.31 89.3496 341.32C89.057 341.473 88.7565 341.619 88.4564 341.758C87.2998 342.314 86.1085 342.794 84.8899 343.196C84.736 343.25 84.5743 343.311 84.4201 343.357C82.4558 343.979 80.4362 344.412 78.3891 344.649C78.1581 344.68 77.9193 344.703 77.6805 344.726C76.6794 344.818 75.6703 344.864 74.6458 344.864C73.7368 344.864 72.8202 344.826 71.9192 344.749C70.0352 344.592 68.169 344.268 66.3428 343.78C64.9527 343.418 63.5908 342.956 62.2682 342.396C62.1986 342.365 62.1295 342.342 62.0603 342.312C61.9832 342.281 61.9215 342.258 61.8523 342.227C61.7752 342.196 61.7135 342.165 61.6364 342.127C61.1358 341.912 60.6352 341.673 60.1501 341.427C60.0805 341.389 60.0113 341.358 59.9421 341.32L59.6725 341.181C59.5107 341.097 59.349 341.012 59.1948 340.927C58.6788 340.651 58.1703 340.351 57.6777 340.043C57.4926 339.928 57.2925 339.805 57.1075 339.682L56.9687 339.59C56.5373 339.297 56.1063 339.005 55.6825 338.69C55.3974 338.475 55.1048 338.267 54.8276 338.044C54.3579 337.69 53.9032 337.314 53.4643 336.921C53.233 336.729 53.0021 336.514 52.7866 336.314C51.9192 335.516 51.0988 334.669 50.3295 333.776C50.0753 333.484 49.8211 333.192 49.5822 332.885C49.5285 332.823 49.4822 332.761 49.428 332.692C45.4572 327.691 43.0685 321.622 42.5667 315.26C42.0649 308.898 43.4727 302.53 46.6106 296.97C49.7484 291.41 54.4741 286.909 60.185 284.041C65.8958 281.173 72.333 280.067 78.6755 280.866C85.018 281.665 90.9785 284.332 95.7966 288.527C100.615 292.721 104.072 298.253 105.728 304.417C107.384 310.581 107.163 317.098 105.094 323.136C103.025 329.175 99.2008 334.461 94.1098 338.321Z" fill="#B18CD8"/>
<path d="M131.593 135.553C119.74 125.569 105.236 119.239 89.8461 117.334C74.4558 115.429 58.8426 118.03 44.9063 124.822C30.9701 131.613 19.3117 142.302 11.3497 155.588C3.38782 168.873 -0.53431 184.183 0.060612 199.653C0.655534 215.123 5.74185 230.088 14.7007 242.725C23.6594 255.362 36.1045 265.127 50.5213 270.832C64.9381 276.537 80.7052 277.936 95.9039 274.858C111.103 271.781 125.078 264.36 136.128 253.498L234.257 336.157C235.751 337.41 237.682 338.021 239.626 337.856C241.571 337.691 243.37 336.762 244.63 335.275C245.89 333.787 246.508 331.861 246.348 329.92C246.188 327.978 245.263 326.179 243.776 324.917L243.765 324.908L145.636 242.248C157.036 225.916 161.915 205.922 159.317 186.185C156.719 166.448 146.832 148.392 131.593 135.553ZM125.267 234.289C117.622 243.333 107.462 249.912 96.0727 253.192C84.6829 256.472 72.5746 256.307 61.2789 252.717C49.9832 249.128 40.0073 242.275 32.6129 233.026C25.2185 223.776 20.7377 212.546 19.737 200.754C18.7363 188.962 21.2607 177.139 26.991 166.779C32.7213 156.42 41.4001 147.989 51.9299 142.554C62.4597 137.119 74.3677 134.922 86.1478 136.243C97.928 137.564 109.051 142.342 118.111 149.973C130.26 160.207 137.839 174.84 139.181 190.652C140.523 206.464 135.518 222.161 125.267 234.289Z" fill="#B18CD8"/>
<path opacity="0.3" d="M40.8068 241.432C29.3087 231.746 21.88 218.097 19.9959 203.196C18.1117 188.295 21.9099 173.231 30.6362 160.996C29.4902 162.148 28.3823 163.355 27.3126 164.616C22.2367 170.621 18.3954 177.566 16.0079 185.053C13.6205 192.541 12.7336 200.424 13.3981 208.253C14.0625 216.083 16.2652 223.705 19.8804 230.684C23.4956 237.664 28.4524 243.865 34.468 248.932C40.4835 253.999 47.4399 257.834 54.94 260.217C62.4401 262.6 70.337 263.486 78.1798 262.822C86.0227 262.159 93.6578 259.96 100.649 256.351C107.641 252.742 113.852 247.794 118.928 241.789C119.995 240.526 121 239.233 121.943 237.909C111.33 248.555 97.0946 254.826 82.0638 255.479C67.0329 256.132 52.3058 251.118 40.8068 241.432Z" fill="black"/>
<path d="M329.42 339.247C330.187 338.313 330.739 337.222 331.038 336.052C331.336 334.882 331.374 333.661 331.149 332.474C330.923 331.288 330.44 330.165 329.733 329.185C329.026 328.205 328.113 327.392 327.057 326.803L309.17 253.717L296.122 257.875L315.436 330.462C314.562 332.299 314.393 334.391 314.962 336.344C315.53 338.296 316.796 339.972 318.52 341.055C320.243 342.138 322.305 342.552 324.314 342.219C326.323 341.886 328.14 340.828 329.42 339.247Z" fill="#FFB6B6"/>
<path d="M320.176 292.498L310.64 300.71L297.299 312.191L291.407 282.096L290.791 278.966L290.306 276.482L303.823 252.976L315.092 253.621L315.862 253.668L315.878 253.838L316.055 255.414L318.365 276.159L318.419 276.659L320.176 292.498Z" fill="#B18CD8"/>
<path d="M257.848 496.783L248.406 496.782L243.913 460.421L257.851 460.422L257.848 496.783Z" fill="#FFB6B6"/>
<path d="M260.257 505.92L229.809 505.919V505.535C229.809 502.397 231.058 499.388 233.28 497.169C235.503 494.951 238.517 493.704 241.66 493.704H241.661L260.257 493.705L260.257 505.92Z" fill="#2F2E41"/>
<path d="M356.439 497.551L346.997 497.551L342.504 461.19L356.441 461.19L356.439 497.551Z" fill="#FFB6B6"/>
<path d="M358.848 506.689L328.4 506.688V506.304C328.4 503.166 329.648 500.157 331.871 497.938C334.093 495.719 337.108 494.473 340.251 494.473H340.252L358.848 494.473L358.848 506.689Z" fill="#2F2E41"/>
<path d="M363.987 483.077L338.569 486.922L301.59 361.987L262.315 487.69L233.816 483.846L270.788 337.75V326.216L275.794 308.915L275.27 304.233L271.627 271.484L270.048 257.282L269.946 256.365C269.86 255.595 270.064 254.82 270.519 254.193C270.974 253.565 271.646 253.128 272.405 252.968L284.267 250.477H303.654L315.092 253.622L315.878 253.837L316.232 253.937L316.055 255.414L313.374 277.851L313.228 279.081L310.64 300.711L310.07 305.455C332.407 321.603 333.177 337.75 333.177 337.75L363.987 483.077Z" fill="#2F2E41"/>
<path d="M291.617 240.749C302.066 240.749 310.535 232.294 310.535 221.863C310.535 211.433 302.066 202.978 291.617 202.978C281.169 202.978 272.7 211.433 272.7 221.863C272.7 232.294 281.169 240.749 291.617 240.749Z" fill="#FFB6B6"/>
<path d="M311.487 301.115L274.064 306.001L274.763 311.338L312.186 306.452L311.487 301.115Z" fill="#B18CD8"/>
<path d="M223.866 307.61C224.224 307.841 224.563 308.1 224.88 308.384L261.895 298.965L264.42 290.05L278.395 292.096L275.461 308.311C275.224 309.621 274.568 310.819 273.591 311.725C272.614 312.631 271.369 313.196 270.043 313.335L226.823 317.879C226.119 319.359 224.98 320.591 223.557 321.409C222.135 322.228 220.496 322.594 218.86 322.46C217.223 322.327 215.667 321.699 214.396 320.66C213.126 319.621 212.203 318.221 211.749 316.646C211.296 315.071 211.333 313.395 211.857 311.841C212.381 310.288 213.366 308.93 214.681 307.949C215.997 306.969 217.58 306.411 219.221 306.35C220.862 306.289 222.482 306.729 223.866 307.61Z" fill="#FFB6B6"/>
<path d="M280.801 257.782L274.254 252.784C272.484 252.114 270.058 254.018 269.632 255.86L260.389 293.537L279.645 307.378L282.341 303.148L280.801 257.782Z" fill="#B18CD8"/>
<g opacity="0.2">
<path d="M318.365 276.159C316.731 276.807 315.066 277.371 313.374 277.851C312.835 278.012 312.281 278.166 311.734 278.312C308.129 279.311 304.425 279.909 300.688 280.096C299.08 280.164 297.469 280.12 295.867 279.965C294.147 279.794 292.447 279.459 290.791 278.966C290.737 278.95 290.675 278.935 290.621 278.92C287.177 277.943 284.02 276.152 281.417 273.699C280.835 273.133 280.292 272.53 279.792 271.892C278.353 270.133 277.298 268.094 276.693 265.906C276.089 263.718 275.948 261.427 276.279 259.181C276.344 258.774 276.431 258.371 276.541 257.974C276.832 256.892 277.216 255.837 277.689 254.821C277.897 254.345 278.128 253.876 278.375 253.414L287.078 250.477H303.654L315.092 253.622L315.862 253.668L315.878 253.837L316.232 253.937L316.055 255.414L318.365 276.159Z" fill="black"/>
</g>
<path d="M277.121 206.228C273.583 205.795 269.701 206.101 266.943 208.356C264.186 210.611 263.296 215.298 265.907 217.72C268.218 219.865 271.832 219.36 274.928 219.97C277.595 220.567 279.984 222.04 281.714 224.153C283.443 226.265 284.412 228.896 284.466 231.624C284.42 239.448 276.9 245.372 275.549 253.078C274.627 258.337 276.849 263.873 280.69 267.588C284.531 271.303 289.812 273.31 295.133 273.854C300.453 274.398 305.833 273.567 311.004 272.203C316.196 270.832 321.308 268.888 325.665 265.753C330.022 262.618 333.593 258.198 334.992 253.021C336.391 247.845 335.387 241.91 331.782 237.935C327.654 233.384 320.787 231.819 317.217 226.82C313.214 221.216 314.695 213.236 311.456 207.16C309.293 203.104 305.198 200.338 300.833 198.88C296.468 197.423 291.806 197.135 287.206 196.994C284.787 196.92 282.295 196.895 280.042 197.775C277.789 198.655 275.809 200.661 275.692 203.074C275.575 205.486 277.121 206.228 277.121 206.228Z" fill="#2F2E41"/>
<path d="M454.23 507H160.768C160.564 507 160.368 506.919 160.223 506.775C160.079 506.631 159.998 506.435 159.998 506.231C159.998 506.027 160.079 505.832 160.223 505.687C160.368 505.543 160.564 505.462 160.768 505.462H454.23C454.434 505.462 454.63 505.543 454.774 505.687C454.919 505.832 455 506.027 455 506.231C455 506.435 454.919 506.631 454.774 506.775C454.63 506.919 454.434 507 454.23 507Z" fill="#CACACA"/>
</g>
<defs>
<clipPath id="clip0_125_800">
<rect width="455" height="507" fill="white"/>
</clipPath>
</defs>
</svg>
