<svg width="431" height="373" viewBox="0 0 431 373" fill="none" xmlns="http://www.w3.org/2000/svg">
<g clip-path="url(#clip0_125_739)">
<path d="M296.261 115.295C296.246 123.723 293.729 131.957 289.03 138.956C284.331 145.955 277.66 151.405 269.86 154.616C262.06 157.828 253.483 158.656 245.212 156.998C236.941 155.339 229.348 151.267 223.393 145.297C217.438 139.327 213.389 131.727 211.758 123.458C210.127 115.189 210.987 106.623 214.229 98.8425C217.471 91.0619 222.95 84.4166 229.973 79.7467C236.996 75.0769 245.247 72.5924 253.683 72.6073C259.288 72.6027 264.839 73.7048 270.017 75.8503C275.195 77.9958 279.897 81.1423 283.854 85.1091C287.81 89.0759 290.943 93.7847 293.072 98.965C295.202 104.145 296.285 109.695 296.261 115.295Z" fill="#B18CD8"/>
<path d="M367.25 140.134L373.247 128.694C367.869 122.206 350.224 114.337 350.224 114.337L326.343 92.6213C326.088 91.6525 325.583 90.7676 324.877 90.0559C324.172 89.3442 323.291 88.8307 322.324 88.567C321.357 88.3034 320.337 88.299 319.368 88.5542C318.398 88.8094 317.513 89.3153 316.802 90.0209C316.09 90.7265 315.577 91.6069 315.314 92.5735C315.052 93.5401 315.048 94.5588 315.305 95.5271C315.562 96.4953 316.069 97.3789 316.776 98.089C317.483 98.799 318.365 99.3104 319.333 99.5718L345.133 130.485L367.25 140.134Z" fill="#9E616A"/>
<path d="M364.344 139.345L372.813 142.038C378.971 143.997 385.607 143.85 391.672 141.619C393.506 140.937 395.113 139.755 396.311 138.208C397.509 136.662 398.249 134.811 398.45 132.865C398.703 130.226 397.944 127.59 396.326 125.488C394.708 123.387 392.352 121.978 389.734 121.546C381.792 120.242 371.56 119.599 367.909 123.939L367.872 123.983L364.344 139.345Z" fill="#3F3D56"/>
<path d="M303.433 174.368C326.99 174.368 346.087 155.29 346.087 131.756C346.087 108.222 326.99 89.1442 303.433 89.1442C279.876 89.1442 260.78 108.222 260.78 131.756C260.78 155.29 279.876 174.368 303.433 174.368Z" fill="white"/>
<path d="M286.026 115.089C285.44 118.231 284.48 121.292 283.166 124.206C275.642 140.108 297.069 134.924 304.727 134.924C313.099 134.924 321.11 139.323 319.886 119.78C319.364 111.432 313.099 104.635 304.727 104.635C297.576 104.635 287.521 107.811 286.026 115.089Z" fill="#2F2E41"/>
<path d="M303.473 134.921C310.276 134.921 315.791 129.411 315.791 122.614C315.791 115.817 310.276 110.307 303.473 110.307C296.669 110.307 291.154 115.817 291.154 122.614C291.154 129.411 296.669 134.921 303.473 134.921Z" fill="#FFB6B6"/>
<path d="M295.107 110.069C297.265 108.754 299.738 108.043 302.266 108.01C304.794 107.977 307.284 108.622 309.477 109.88C311.669 111.137 313.484 112.96 314.73 115.158C315.976 117.355 316.608 119.847 316.56 122.372C310.283 123.946 303.689 125.151 296.995 122.749L295.414 118.883L294.482 122.751C292.443 123.584 290.399 124.288 288.356 122.743C288.272 120.225 288.852 117.729 290.037 115.505C291.221 113.281 292.97 111.407 295.107 110.069Z" fill="#2F2E41"/>
<path d="M336.598 160.09C329.209 168.49 318.809 173.65 307.644 174.457C296.479 175.263 285.445 171.65 276.923 164.399L280.582 154.2C281.409 152.389 282.713 150.837 284.356 149.71C285.999 148.583 287.918 147.924 289.907 147.803L292.234 147.661L297.784 142.879C297.784 142.879 312.737 142.345 312.516 142.09L321.573 147.533L321.566 147.495L325.127 147.713C327.116 147.833 329.035 148.492 330.678 149.619C332.321 150.746 333.625 152.299 334.452 154.11L336.598 160.09Z" fill="#DADADA"/>
<path d="M299.691 335.676L298.631 320.95C291.689 317.483 284.004 315.761 276.244 315.934C287.161 324.365 286.286 341.214 293.847 352.745C296.233 356.323 299.394 359.319 303.096 361.511C306.799 363.703 310.947 365.035 315.235 365.407L324.32 370.629C325.36 363.767 324.897 356.761 322.965 350.094C321.033 343.427 317.678 337.258 313.129 332.011C310.549 329.093 307.61 326.511 304.384 324.327C302.398 330.023 299.691 335.676 299.691 335.676Z" fill="#B18CD8"/>
<path d="M23.4473 74.649L22.3874 59.9223C15.4448 56.4552 7.75985 54.7335 0 54.9068C10.9171 63.3371 10.0426 80.1863 17.6033 91.7174C19.9889 95.2958 23.1501 98.292 26.8524 100.484C30.5547 102.676 34.7034 104.007 38.9908 104.38L48.0765 109.602C49.1158 102.739 48.6536 95.7332 46.7216 89.0663C44.7896 82.3994 41.4339 76.2302 36.8855 70.9837C34.3047 68.0657 31.3664 65.484 28.1399 63.2995C26.1539 68.9957 23.4473 74.649 23.4473 74.649Z" fill="#B18CD8"/>
<path d="M339.437 365.65L332.35 365.65L328.978 338.341H339.438L339.437 365.65Z" fill="#9E616A"/>
<path d="M341.244 372.513L318.392 372.512V372.224C318.393 369.867 319.33 367.607 320.998 365.941C322.666 364.274 324.928 363.338 327.287 363.338H327.288L331.462 360.174L339.25 363.339L341.244 363.339L341.244 372.513Z" fill="#2F2E41"/>
<path d="M401.897 365.65L394.811 365.65L391.439 338.341H401.899L401.897 365.65Z" fill="#9E616A"/>
<path d="M403.705 372.513L380.853 372.512V372.224C380.853 369.867 381.791 367.607 383.459 365.941C385.127 364.274 387.389 363.338 389.748 363.338H389.748L393.922 360.174L401.71 363.339L403.705 363.339L403.705 372.513Z" fill="#2F2E41"/>
<path d="M391.118 219.49L397.079 276.063C397.079 276.063 405.014 332.708 403.524 340.524C402.034 348.339 403.897 349.456 403.897 349.456L390.299 348.489C390.299 348.489 390.672 343.65 388.437 341.417C386.201 339.184 387.319 332.485 387.319 332.485L360.942 240.333L344.922 288.717C344.922 288.717 342.314 341.94 341.942 342.684C341.569 343.428 340.452 353.477 340.452 353.477H326.667C326.667 353.477 328.53 347.522 325.922 345.661C323.314 343.8 321.079 345.289 323.314 341.94C325.55 338.59 326.295 334.496 325.55 332.635C324.804 330.774 324.804 323.33 324.804 323.33C324.804 323.33 325.922 222.84 332.255 219.49C338.589 216.141 391.118 219.49 391.118 219.49Z" fill="#2F2E41"/>
<path d="M362.889 104.946C370.987 104.946 377.551 98.3882 377.551 90.299C377.551 82.2099 370.987 75.6523 362.889 75.6523C354.792 75.6523 348.228 82.2099 348.228 90.299C348.228 98.3882 354.792 104.946 362.889 104.946Z" fill="#9E616A"/>
<path d="M396.185 225.656C367.792 231.514 330.166 221.443 330.166 221.443L340.203 177.976L336.635 132.487C336.199 126.924 339.37 121.71 344.304 119.862L351.117 117.313L356.748 109.259L372.833 109.786L379.263 118.241L384.337 120.931L395.338 126.76L395.386 126.784V126.808L391.934 160.262L389.852 180.433C389.852 180.433 396.176 203.12 394.878 206.128C393.58 209.132 394.709 207.681 395.023 209.287C395.338 210.893 396.302 210.995 396.447 214.158C396.597 217.317 396.185 225.656 396.185 225.656Z" fill="#3F3D56"/>
<path d="M430.509 373H211.186C211.056 373 210.931 372.948 210.839 372.856C210.747 372.764 210.696 372.639 210.696 372.509C210.696 372.379 210.747 372.255 210.839 372.163C210.931 372.071 211.056 372.019 211.186 372.019H430.509C430.639 372.019 430.764 372.07 430.856 372.162C430.948 372.254 431 372.379 431 372.509C431 372.639 430.948 372.764 430.856 372.856C430.764 372.948 430.639 373 430.509 373Z" fill="#B18CD8"/>
<path d="M362.176 104.242C364.748 104.216 367.312 103.97 369.842 103.508C372.346 102.931 377.871 98.6632 379.377 96.1417C380.496 94.2683 381.167 91.3705 381.534 89.2696C382.028 86.4891 381.933 83.6359 381.254 80.8946C380.574 78.1533 379.326 75.5851 377.591 73.3563C376.921 72.4225 376.012 71.6869 374.959 71.227C374.866 71.1934 374.77 71.1639 374.673 71.1391C373.146 70.7795 371.762 69.9723 370.698 68.8211C370.491 68.588 370.268 68.3701 370.03 68.1691C368.836 67.2141 367.433 66.5549 365.935 66.2455C363.515 65.6649 360.054 66.3924 355.648 68.4095C353.434 69.423 350.977 69.1402 349.083 68.7807C348.977 68.763 348.868 68.7735 348.767 68.8109C348.666 68.8484 348.577 68.9116 348.508 68.9943C347.726 69.7664 346.681 70.2143 345.582 70.2479C344.909 70.2948 344.227 71.2442 343.405 72.4805C343.218 72.7611 343.001 73.0886 342.843 73.2885L342.811 72.9132L342.441 73.3423C341.859 74.0169 341.458 74.8274 341.275 75.6986C341.091 76.5697 341.131 77.4731 341.391 78.3245C341.652 79.176 342.123 79.9479 342.762 80.5683C343.401 81.1887 344.187 81.6374 345.046 81.8728C345.728 82.0353 346.425 82.1278 347.125 82.149C347.55 82.1761 347.989 82.2042 348.411 82.2662C349.767 82.5073 351.036 83.0953 352.096 83.9728C353.156 84.8504 353.97 85.9876 354.459 87.2733C354.574 87.5704 354.757 87.8371 354.991 88.0527C355.226 88.2683 355.508 88.4271 355.814 88.5168C356.12 88.6066 356.443 88.6248 356.757 88.5702C357.071 88.5156 357.369 88.3895 357.627 88.2018C358.055 87.8501 358.563 87.6072 359.106 87.4939C359.649 87.3805 360.212 87.4001 360.745 87.5509C361.21 87.7934 361.576 88.1879 361.784 88.6683C362.035 89.2031 362.44 89.651 362.947 89.955C364.676 90.7897 364.894 94.6794 364.365 97.9402C363.855 101.083 362.746 103.376 361.668 103.516C360.838 103.623 360.745 103.685 360.688 103.834L360.638 103.967L360.734 104.087C361.198 104.242 361.69 104.295 362.176 104.242Z" fill="#2F2E41"/>
<path d="M303.433 174.902C294.892 174.902 286.542 172.371 279.439 167.63C272.337 162.89 266.802 156.151 263.533 148.267C260.264 140.383 259.409 131.708 261.075 123.339C262.742 114.969 266.855 107.282 272.895 101.248C278.935 95.2136 286.63 91.1043 295.008 89.4396C303.385 87.7748 312.069 88.6292 319.961 91.8948C327.852 95.1604 334.597 100.69 339.343 107.786C344.088 114.881 346.621 123.223 346.621 131.756C346.608 143.195 342.054 154.162 333.957 162.25C325.861 170.339 314.884 174.889 303.433 174.902ZM303.433 89.6781C295.103 89.6781 286.96 92.146 280.033 96.7696C273.107 101.393 267.708 107.965 264.52 115.654C261.332 123.342 260.498 131.803 262.123 139.965C263.749 148.128 267.76 155.625 273.651 161.51C279.541 167.395 287.046 171.402 295.216 173.026C303.387 174.649 311.855 173.816 319.552 170.631C327.248 167.446 333.826 162.053 338.454 155.133C343.082 148.214 345.553 140.078 345.553 131.756C345.54 120.6 341.098 109.905 333.202 102.016C325.306 94.1281 314.6 89.6908 303.433 89.6781Z" fill="#3F3D56"/>
<path d="M154.358 85.7576C177.915 85.7576 197.011 66.6796 197.011 43.1457C197.011 19.6117 177.915 0.533722 154.358 0.533722C130.801 0.533722 111.704 19.6117 111.704 43.1457C111.704 66.6796 130.801 85.7576 154.358 85.7576Z" fill="white"/>
<path d="M156.332 47.4923C164.013 47.4923 170.24 41.2713 170.24 33.5973C170.24 25.9233 164.013 19.7023 156.332 19.7023C148.65 19.7023 142.423 25.9233 142.423 33.5973C142.423 41.2713 148.65 47.4923 156.332 47.4923Z" fill="#FFB8B8"/>
<path d="M168.578 24.418C168.578 24.418 172.199 17.5019 164.232 16.8732C164.232 16.8732 157.44 10.718 150.517 15.7479C150.517 15.7479 146.741 15.7479 144.676 20.0169C144.676 20.0169 141.707 18.8916 141.054 21.9031C141.054 21.9031 138.881 28.1904 141.054 33.849C143.227 39.5077 143.949 40.1364 143.949 40.1364C143.949 40.1364 142.424 33.1144 151.116 32.4856C159.808 31.8569 167.782 26.417 168.507 33.3331C169.231 40.2492 170.027 37.1249 170.027 37.1249C170.027 37.1249 176.907 27.2473 168.578 24.418Z" fill="#2F2E41"/>
<path d="M186.435 71.4799C179.045 79.8799 168.646 85.0399 157.481 85.846C146.316 86.6521 135.282 83.0397 126.76 75.7884L130.418 65.59C131.245 63.7786 132.55 62.2262 134.193 61.0992C135.835 59.9723 137.754 59.3133 139.743 59.1929L142.071 59.0502L147.62 54.2684C147.62 54.2684 162.574 53.735 162.352 53.4795L171.41 58.9225L171.403 58.8849L174.963 59.1028C176.953 59.2226 178.872 59.8814 180.514 61.0084C182.157 62.1354 183.462 63.6881 184.288 65.4998L186.435 71.4799Z" fill="#DADADA"/>
<path d="M154.358 86.2913C145.816 86.2913 137.466 83.7609 130.364 79.02C123.262 74.2791 117.726 67.5406 114.457 59.6568C111.189 51.7729 110.333 43.0978 112 34.7284C113.666 26.3589 117.78 18.6711 123.819 12.6371C129.859 6.60303 137.555 2.49381 145.932 0.829022C154.31 -0.835763 162.994 0.018661 170.885 3.28425C178.777 6.54985 185.522 12.0799 190.267 19.1752C195.013 26.2705 197.546 34.6122 197.546 43.1456C197.533 54.5846 192.978 65.5513 184.882 73.6399C176.785 81.7285 165.808 86.2783 154.358 86.2913ZM154.358 1.06758C146.027 1.06758 137.884 3.53542 130.958 8.15901C124.031 12.7826 118.633 19.3543 115.445 27.0431C112.257 34.7318 111.423 43.1923 113.048 51.3547C114.673 59.517 118.685 67.0146 124.575 72.8993C130.466 78.784 137.97 82.7916 146.141 84.4152C154.311 86.0388 162.78 85.2055 170.476 82.0207C178.172 78.8359 184.751 73.4427 189.379 66.523C194.007 59.6033 196.477 51.4679 196.477 43.1456C196.464 31.9897 192.023 21.2944 184.127 13.4059C176.231 5.51751 165.525 1.08024 154.358 1.06758Z" fill="#3F3D56"/>
<path d="M54.8014 153.016C78.3584 153.016 97.4551 133.938 97.4551 110.404C97.4551 86.8703 78.3584 67.7923 54.8014 67.7923C31.2445 67.7923 12.1478 86.8703 12.1478 110.404C12.1478 133.938 31.2445 153.016 54.8014 153.016Z" fill="white"/>
<path d="M35.0319 96.5426C36.7956 90.9272 40.8063 85.777 46.3531 83.8786C51.9001 81.9803 60.0225 84.8721 64.1926 89.0241C71.8207 96.6189 73.6822 122.71 68.4414 130.955C67.399 130.9 63.8021 130.859 62.747 130.82L61.2545 125.85V130.771C59.5737 130.719 57.8797 130.683 56.1726 130.663C50.4489 130.592 44.9757 128.307 40.9035 124.288C36.8314 120.269 34.4775 114.83 34.3367 109.113C34.2001 103.644 34.3368 98.7555 35.0319 96.5426Z" fill="#2F2E41"/>
<path d="M54.1688 115.153C60.8824 115.153 66.3248 109.716 66.3248 103.009C66.3248 96.3022 60.8824 90.8651 54.1688 90.8651C47.4552 90.8651 42.0128 96.3022 42.0128 103.009C42.0128 109.716 47.4552 115.153 54.1688 115.153Z" fill="#9E616A"/>
<path d="M43.6778 92.3437L57.6742 85.3422C60.5357 86.6304 63.0002 88.6599 64.8119 91.2203C66.6237 93.7807 67.7168 96.7787 67.9779 99.9033L68.3268 104.078L62.4658 102.588L61.8236 97.2493L60.8284 102.171L58.1235 101.484L58.1492 93.1961L55.4427 101.478L45.7823 99.2604L43.6778 92.3437Z" fill="#2F2E41"/>
<path d="M86.4533 138.603C79.0637 147.003 68.6639 152.163 57.4991 152.969C46.3342 153.775 35.2999 150.163 26.7781 142.912L30.4366 132.713C31.2633 130.902 32.568 129.349 34.2108 128.222C35.8535 127.095 37.7723 126.436 39.7614 126.316L42.0889 126.173L47.6386 121.391C47.6386 121.391 62.5922 120.858 62.3704 120.603L71.4283 126.046L71.4208 126.008L74.9815 126.226C76.9707 126.346 78.8897 127.005 80.5326 128.132C82.1754 129.259 83.48 130.811 84.3063 132.623L86.4533 138.603Z" fill="#DADADA"/>
<path d="M54.8015 153.55C46.2598 153.55 37.9099 151.019 30.8076 146.278C23.7054 141.538 18.1699 134.799 14.9011 126.915C11.6324 119.031 10.7771 110.356 12.4435 101.987C14.1099 93.6175 18.2232 85.9296 24.2631 79.8956C30.303 73.8616 37.9984 69.7524 46.376 68.0876C54.7536 66.4228 63.4373 67.2772 71.3288 70.5428C79.2204 73.8084 85.9654 79.3385 90.711 86.4338C95.4565 93.529 97.9894 101.871 97.9894 110.404C97.9764 121.843 93.4221 132.81 85.3256 140.898C77.2292 148.987 66.2517 153.537 54.8015 153.55ZM54.8015 68.3261C46.4711 68.3261 38.3278 70.794 31.4014 75.4176C24.4749 80.0412 19.0763 86.6129 15.8884 94.3016C12.7005 101.99 11.8664 110.451 13.4916 118.613C15.1168 126.776 19.1283 134.273 25.0187 140.158C30.9092 146.043 38.4141 150.05 46.5845 151.674C54.7548 153.297 63.2236 152.464 70.9199 149.279C78.6162 146.094 85.1943 140.701 89.8224 133.782C94.4505 126.862 96.9208 118.726 96.9208 110.404C96.9081 99.2483 92.4665 88.5529 84.5704 80.6645C76.6742 72.776 65.9684 68.3388 54.8015 68.3261Z" fill="#3F3D56"/>
<path d="M342.827 153.863L336.369 142.675C328.005 143.737 311.902 154.407 311.902 154.407L280.754 162.921C279.799 162.617 278.78 162.569 277.801 162.783C276.821 162.997 275.915 163.464 275.174 164.139C274.433 164.814 273.883 165.672 273.58 166.626C273.276 167.581 273.23 168.599 273.445 169.577C273.66 170.555 274.13 171.459 274.806 172.199C275.482 172.938 276.341 173.487 277.297 173.789C278.253 174.091 279.272 174.136 280.251 173.92C281.23 173.704 282.135 173.234 282.874 172.557L322.823 167.351L342.827 153.863Z" fill="#9E616A"/>
<path d="M340.604 155.891L355.061 143.793L357.164 134.056C357.57 132.142 357.432 130.154 356.766 128.315C356.1 126.476 354.933 124.86 353.396 123.649C351.301 122.021 348.666 121.249 346.023 121.488C343.38 121.728 340.927 122.961 339.159 124.938C333.803 130.939 327.778 139.227 329.491 144.631L329.509 144.686L340.604 155.891Z" fill="#3F3D56"/>
<path d="M119.018 197.916H64.6962C63.2404 197.915 61.8447 197.336 60.8152 196.308C59.7858 195.279 59.2068 193.885 59.2051 192.431V159.006C59.2068 157.552 59.7858 156.157 60.8152 155.129C61.8447 154.101 63.2404 153.522 64.6962 153.521H119.018C120.474 153.522 121.869 154.101 122.899 155.129C123.928 156.157 124.507 157.552 124.509 159.006V192.431C124.507 193.885 123.928 195.279 122.899 196.308C121.869 197.336 120.474 197.915 119.018 197.916Z" fill="#B18CD8"/>
<path d="M97.4351 193.611H68.5147C67.1513 193.61 65.8441 193.068 64.8799 192.105C63.9158 191.142 63.3735 189.836 63.3719 188.474V162.963C63.3735 161.601 63.9158 160.295 64.8799 159.332C65.8441 158.369 67.1513 157.827 68.5147 157.826H115.2C116.563 157.827 117.87 158.369 118.834 159.332C119.798 160.295 120.341 161.601 120.342 162.963V170.727C120.335 176.794 117.92 182.611 113.625 186.901C109.331 191.191 103.508 193.604 97.4351 193.611Z" fill="white"/>
<path d="M110.542 171.795H73.1717C72.8485 171.795 72.5385 171.666 72.3099 171.438C72.0814 171.21 71.9529 170.9 71.9529 170.577C71.9529 170.254 72.0814 169.944 72.3099 169.716C72.5385 169.488 72.8485 169.359 73.1717 169.359H110.542C110.866 169.359 111.176 169.488 111.404 169.716C111.633 169.944 111.761 170.254 111.761 170.577C111.761 170.9 111.633 171.21 111.404 171.438C111.176 171.666 110.866 171.795 110.542 171.795Z" fill="#DADADA"/>
<path d="M79.0175 176.606H73.1717C72.8485 176.606 72.5384 176.478 72.3099 176.249C72.0813 176.021 71.9529 175.711 71.9529 175.388C71.9529 175.065 72.0813 174.756 72.3099 174.527C72.5384 174.299 72.8485 174.171 73.1717 174.171H79.0175C79.3407 174.171 79.6507 174.299 79.8793 174.527C80.1079 174.756 80.2363 175.065 80.2363 175.388C80.2363 175.711 80.1079 176.021 79.8793 176.249C79.6507 176.478 79.3407 176.606 79.0175 176.606Z" fill="#DADADA"/>
<path d="M89.371 181.417H73.1717C72.8489 181.416 72.5396 181.288 72.3115 181.06C72.0835 180.831 71.9554 180.522 71.9554 180.199C71.9554 179.877 72.0835 179.568 72.3115 179.339C72.5396 179.111 72.8489 178.982 73.1717 178.982H89.371C89.6938 178.982 90.0032 179.111 90.2312 179.339C90.4592 179.568 90.5873 179.877 90.5873 180.199C90.5873 180.522 90.4592 180.831 90.2312 181.06C90.0032 181.288 89.6938 181.416 89.371 181.417Z" fill="#DADADA"/>
<path d="M57.3094 164.335C63.6558 164.335 68.8006 159.195 68.8006 152.855C68.8006 146.515 63.6558 141.375 57.3094 141.375C50.963 141.375 45.8182 146.515 45.8182 152.855C45.8182 159.195 50.963 164.335 57.3094 164.335Z" fill="#3F3D56"/>
<path d="M260.079 46.3176H205.757C204.301 46.316 202.905 45.7375 201.876 44.7091C200.846 43.6806 200.267 42.2863 200.266 40.8319V7.40748C200.267 5.95308 200.846 4.55873 201.876 3.53031C202.905 2.50189 204.301 1.9234 205.757 1.92175H260.079C261.534 1.9234 262.93 2.50189 263.96 3.5303C264.989 4.55872 265.568 5.95308 265.57 7.40748V40.8319C265.568 42.2863 264.989 43.6806 263.96 44.7091C262.93 45.7375 261.534 46.316 260.079 46.3176Z" fill="#B18CD8"/>
<path d="M238.496 42.0123H209.575C208.212 42.0108 206.905 41.4691 205.941 40.5059C204.976 39.5428 204.434 38.2369 204.432 36.8748V11.3645C204.434 10.0024 204.976 8.69653 205.941 7.73339C206.905 6.77024 208.212 6.22849 209.575 6.22699H256.26C257.624 6.2285 258.931 6.77026 259.895 7.73341C260.859 8.69656 261.401 10.0024 261.403 11.3645V19.1278C261.396 25.1951 258.98 31.0119 254.686 35.3021C250.391 39.5923 244.569 42.0055 238.496 42.0123Z" fill="white"/>
<path d="M251.603 20.1958H214.232C213.909 20.1958 213.599 20.0675 213.371 19.8392C213.142 19.6108 213.014 19.3011 213.014 18.9782C213.014 18.6553 213.142 18.3456 213.371 18.1172C213.599 17.8889 213.909 17.7606 214.232 17.7606H251.603C251.926 17.7606 252.236 17.8889 252.465 18.1172C252.693 18.3456 252.822 18.6553 252.822 18.9782C252.822 19.3011 252.693 19.6108 252.465 19.8392C252.236 20.0675 251.926 20.1958 251.603 20.1958Z" fill="#DADADA"/>
<path d="M220.078 25.0071H214.232C213.909 25.0071 213.599 24.8788 213.371 24.6505C213.142 24.4221 213.014 24.1124 213.014 23.7895C213.014 23.4665 213.142 23.1568 213.371 22.9284C213.599 22.7001 213.909 22.5718 214.232 22.5718H220.078C220.401 22.5718 220.711 22.7001 220.94 22.9284C221.169 23.1568 221.297 23.4665 221.297 23.7895C221.297 24.1124 221.169 24.4221 220.94 24.6505C220.711 24.8788 220.401 25.0071 220.078 25.0071Z" fill="#DADADA"/>
<path d="M230.432 29.8184H214.232C213.91 29.8177 213.6 29.6892 213.372 29.4609C213.144 29.2326 213.016 28.9233 213.016 28.6008C213.016 28.2783 213.144 27.9689 213.372 27.7407C213.6 27.5124 213.91 27.3838 214.232 27.3831H230.432C230.755 27.3831 231.065 27.5114 231.294 27.7398C231.522 27.9681 231.651 28.2778 231.651 28.6008C231.651 28.9237 231.522 29.2334 231.294 29.4618C231.065 29.6901 230.755 29.8184 230.432 29.8184Z" fill="#DADADA"/>
<path d="M198.37 52.7709C204.717 52.7709 209.861 47.6311 209.861 41.2909C209.861 34.9507 204.717 29.811 198.37 29.811C192.024 29.811 186.879 34.9507 186.879 41.2909C186.879 47.6311 192.024 52.7709 198.37 52.7709Z" fill="#3F3D56"/>
</g>
<defs>
<clipPath id="clip0_125_739">
<rect width="431" height="373" fill="white"/>
</clipPath>
</defs>
</svg>
